<mxfile host="app.diagrams.net" modified="2023-07-11T21:30:43.450Z" agent="Mozilla/5.0 (Windows NT 10.0; Win64; x64) AppleWebKit/537.36 (KHTML, like Gecko) Chrome/114.0.0.0 Safari/537.36 Edg/114.0.1823.79" etag="q6cqG4sqhJn2hjBjs9cl" version="21.6.1" type="github">
  <diagram name="Page-1" id="p00hsKrz2vyDuYpgXlpv">
    <mxGraphModel dx="2641" dy="1006" grid="1" gridSize="10" guides="1" tooltips="1" connect="1" arrows="1" fold="1" page="1" pageScale="1" pageWidth="850" pageHeight="1100" math="0" shadow="0">
      <root>
        <mxCell id="0" />
        <mxCell id="1" parent="0" />
        <mxCell id="UiGgM8e8upT6HwpkXlBG-1" value="" style="shape=image;verticalLabelPosition=bottom;labelBackgroundColor=default;verticalAlign=top;aspect=fixed;imageAspect=0;image=data:image/png,iVBORw0KGgoAAAANSUhEUgAAAwIAAAKFCAYAAAB/fl5sAAAgAElEQVR4nOzdfVRUd57v+09BQRWUFsiDJSAqCggYVCAwEZJgYpJL63HsdnIn6Uwy08laJ/bN6WTN8XSnb/rOcXLsSTzpp8nKZOxr1j2dtSZ9p02P125ja7pDJ0EjqCCKkuADKioBLREsULAKCuv+ARoQRCRAFez3a61eTe3923t/wYj1qd+TyXXitz4BAAAAMJQgfxcAAAAAYPwRBAAAAAADIggAAAAABkQQAAAAAAyIIAAAAAAYEEEAAAAAMCCCAAAAAGBABAEAAADAgAgCAAAAgAERBAAAAAADIggAAAAABkQQAAAAAAyIIAAAAAAYEEEAAAAAMCCCAAAAAGBABAEAAADAgAgCAAAAgAGZ/V0AAIylPSfCJJn8XQaAgOTT/anX/F0E4DcEAQCTnEllZWX+LgJAAMrPz/d3CYBfMTQIAAAAMCCCAAAAAGBABAEAAADAgAgCAAAAgAExWRiAYS1ZskQmEysKAZOdz+fT3r17/V0GEHAIAgAMy2QyacWKFf4uA8AY27Fjh79LAAISQ4MAAAAAAyIIAAAAAAZEEAAAAAAMiCAAAAAAGBBBAAAAADAgggAAAABgQAQBAAAAwIAIAgAAAIABEQQAAAAAAyIIAAAAAAZEEAAAAAAMiCAAAAAAGBBBAAAAADAgggAAAABgQAQBAAAAwIAIAgAAAIABEQQAAAAAAyIIAAAAAAZEEAAAAAAMiCAAAAAAGBBBAAAAADAgggAAAABgQAQBAAAAwIAIAgAAAIABEQQAAAAAAyIIAAAAAAZEEAAAAAAMiCAAAAAAGBBBAAAAADAgggAAAABgQAQBAAAAwIAIAgAAAIABEQQAAAAAAyIIAAAAAAZEEAAAAAAMiCAAAAAAGBBBAAAAADAgggAAAABgQAQBAAAAwIAIAgAAAIABEQQAAAAAAyIIAAAAAAZEEAAAAAAMiCAAAAAAGBBBAAAAADAgggAAAABgQAQBAAAAwIAIAgAAAIABEQQAAAAAAyIIAAAAAAZEEAAAAAAMiCAAAAAAGBBBAAAAADAgggAAAABgQAQBAAAAwIAIAgAAAIABEQQAAJDkaalXdfVRnW/r9ncpADAuzP4uAACA/jza9au39ekFaaql57U0VVMc05WculBZi9IVZRn9p54u3qiNJS4VvPCGns60j/4DACDAEAQAAAHGq+ZzJ+V0Ss6+h0/WqKq0RFtk1aPPv6zVWXGj+lRzyFRJLoXwLyMAg+DXHQAg4IRIkhx6dt1aLbBJHe2t+vJEhT78fbHq3W4Vv7NeeukNrU7nk3sAGCmCAAAgYE2122WzSTa7XbFxicoqfER//PkPte2kVPzWb7Tkl2t0o1/Ac75av9+yXVWNVySLRfGzFuqRb65SelTwzfu1nz+qTz7erepzzZIsip6VqvzCAmUmRg36/O6mam37pEZdXeHK+9ZKJdnG/nsGgPFCEAAATCB2FX1vrb74+1/opKq0t7Zdq1Nsajr0vta9U9KvpctZrJqKCj372j8pLypYTeW/1rp3S/u1qa8/qarSMr3wsw2y3vqolkN6Y907qpekjMf1nwgBACYZggAAYGKxzNW9GVadrHHrSHWjVs/y6l97Q0Du42v1N8tSZOlu0cf/z0+1pcqld//f/cp5bpr+tTcERC5+XC89fb/snhZ9UfqB3t15pt/tQ8wWyVOrn/9fPSHAuvhJ/c81hRqD+ckA4FcEAQDABBOsWSkzpZqT8nS4Vf/pR3JKisx9Xs8tS+ltEqVlTz+lP1dtlKvxgo5/trdn4rHjUb2yZpnskmSLU97KNVpU2C6zTTrde/euyzX69a/e0UlJ1gxCAIDJiyAAAJhwvF0eSZIlxKyrHVckSa6Kf9Or534rj0eSLJLbKZckuY6p4UqnJGnxYw/o1unFFnv/MT8l777T80Xko/qnFwkBACYvNhQDAEwwHp2qrpckpWckyBo+VZJkjbT2hoCeNrI65HBEyhoZrbCwnjaxseHDf4yrQofPs7kYgMmLHgEAwITSfX6f/tSTAxQRaZG7tqdHIOepV267EVjt1lclSU2NbVLK0LN+Fz/+rGbX/Ebbalx6b/1Gxb35opLoFgAwCdEjAAAIWOZblvLxNFXrzfWb5Zak5FV6INGiKb09AqX//qHaBtyhW03nW2TubVP1x91quaVF2/kmefq8jp2Vo6IX1ypDklSjn/x8u9pH59sBgIBCEAAABKhWHdxTrvLyMu36eLt+9S+v6u/XbdRJSVKyXvpukWySEh/6SyVKkqtEP3z916qub1JLS5Nqq3fpV69/T+vW71T0A8vl6G3z459vVV1Tm1qa6rTr/Z/rh+tf14k+7/S7vO2SEvXCuid7lhSt36mfvl89zt87AIw9hgYBAAJOR6skuVWy+V2V3HIuMnmpnv/PT3y1uZclRd97aZX+8a1tcteXauPrpbdcEK5gW7r+y/NLte6dErlPFusn64r7NpBZkrerZ4hRl7fnaHBcoV5+5pTWv1chZ8lGbZrxI60pTBz17xUA/IUgAAAIMFblfftJxVyRzDf/lQqRPSpWMxJmKS5q4IB9e3qR/vnNHJV/+okO1V5Up6TQadOVtiBbWRkpskmyZT2hN1/L077Sch07c1EKtSl2dpqy8hYpySa15z+lVREXNXvGV/ePy/87rdU8nbvmlXnw6QcAMGERBAAAASZYSXmFSrrbyyyxyit6QnlFQzSJSlLhyiQVDnLOlpipogEf+AcrJb9QKXdbCwBMAMwRAAAAAAyIIAAAAAAYEEEAAAAAMCCCAAAAAGBABAEAAADAgAgCAAAAgAERBAAAAAADIggAAAAABkQQAAAAAAyIIAAAAAAYEEEAAAAAMCCCAAAAAGBABAEAAADAgAgCAAAAgAERBAAAAAADIggAAAAABkQQAAAAAAyIIAAAAAAYEEEAAAAAMCCCAAAAAGBABAEAAADAgAgCAAAAgAERBAAAAAADIggAAAAABkQQAAAAAAyIIAAAAAAYEEEAAAAAMCCCAAAAAGBABAEAAADAgAgCAAAAgAERBAAAAAADIggAAAAABkQQAAAAAAyIIAAAAAAYEEEAAAAAMCCCAAAAAGBABAEAAADAgAgCAIBJp7Oz098lTFj87ADjMPu7AAAARlNdXZ1qampue37FihXjWE1g2rFjx5DnMzIylJSUNE7VAPAXggAAYFLweDyqqKhQU1OTqqqq5PV6B7TJz8+/45tgoygrKxv0uNlslsfjUUNDg3Jzc2WxWMa5MgDjhSAAAJjwnE6nKisr1dDQoDNnzgzZlh6BoXsEvF6vKisrNWfOHLW1tSk7O1szZswYx+oAjBeCAABgwvJ6vTp8+LAaGhr0xRdf6OrVq/4uadI4c+aMLl26JK/Xq4SEBC1atEhmM28bgMmEv9EAgAnp8uXLKi8vl9PpVG1tra5fvz6s6xgaNHxXr15VRUWFXC6XLl26pLy8PE2bNs3fZQEYJQQBAMCEcv36dR07dkynT5/W8ePH1dLSclfXMzTo7sLQ9evXdfz4cV28eFFdXV2aO3eu0tLSFBTEwoPAREcQAABMGO3t7dq/f7+ampp09OhRdXV1DdouODhY3d3d41zd5HC7n93ly5d14MABtbe368KFC8rLy9OUKVP8UCGA0UIQAABMCDeWBa2rq9P58+dv2y4hIUGzZs2SyWQax+omnvz8/EGP+3w+nTt3Tg0NDQPOdXV16ciRI5oxY4auXbvGMqPABEcQAAAEtL7Lgn7++edyu92DtgsLC1NGRoaio6OVn5+vkJCQca504hhqeFRXV5f27t2rGTNmqKamRteuXRvQ5sKFC3K5XCwzCkxwBAEAQMAazrKgJpNJiYmJSkxMVEZGhmbPnk1vwNcQEhKiBx98UGfPnpXValV9fb3q6+vl8/n6tXO73SwzCkxwBAEAQMAZ7rKgNptNGRkZio2NVU5OjqxW6zhXOnnNnj1bDodDlZWVcjgcOnr06KB/DiwzCkxc/E0FAASU4SwLGhQUpDlz5iguLk6LFi1SQkKCHyqd/KxWqwoKCtTQ0KDQ0FBduHBBdXV1A/5MWGYUmJgIAgCAgNB3WdBjx47p8uXLg7az2+1KT0+Xw+FQVlaWQkNDx7lS40lISFBsbKyqqqoUExOjo0ePqq2trV8blhkFJh6CAADA7zo7O7Vnz54hlwUNCgpScnKypk+fruzsbDkcDj9UalyhoaHKy8uT0+lUaGionE6nTp06NWCp0VuXGb3//vsJa0CAIggAMCyfz8cuswHC5/Oprq5OFy5cGPT8tGnTNH/+fCUkJCgzM5MVgfzI4XBo2bJlqq6uVlRUlI4fPz6g96bvMqMdHR1+n7x960Tnvsf3nAgftec4HA6/f6/9dejMseM6f9ktma2KmzNPc2Ltd3UHn88np9N5V9cE3s9hoO628zp6/IxavFKYdZrmzE9RbHjwbduP5OcwMj7dnzpwpa6xYnKd+O3gfzsAYBLYcyJcZWVl/i4Dd2A2m+X1egc9npqaqpiYGN17772Kjo72Q3W4nebmZh04cECXLl3SiRMnbvtnONjxyWj16tXaunWrv8sYVSP5nvg5jFx+fr7uT+0Y8+fcQI8AAMDvBnujGBMTo5SUFM2aNUsLFixQcPDtP62Df0RHR+uRRx5RTU2NIiIiVFtbq0uXLvVrY5QQAExEBAEAQEAJCQlRWlqaoqOjlZubq8jISH+XhCEEBwcrMzNTiYmJslqtam5u1rFjx9TZ2env0vxi9erV/i4hIPBzmBgIAgCAgOFwODRv3jzNmzdPqamprDgzgURGRurhhx/WiRMnNGXKFJ06dWqcxlQHlsk4JGYk+DlMDAQBAIDf3fhU+UYvwNSpU/1dEkYgKChIaWlpSkhIUFhYmOLj43XkyJEBKwsBCAxMFgYwqQ01WXjJkiUBv7KFP/l8Pu3du3fQc2Pxs5s/f77mzZvHn8kk4fP5dOrUKR0/ftzfpYybibBazt2arKsG3a3RXjXodr9fmSwMAOPEZDJpxYoV/i4jYA21tOpo/+y6urpYEnSSMZlMSk5O1uzZs/mzBW4RKEtXM/gSAOB3vFGcvPizBQIXQQAAAAAwIIIAAAAAYEAEAQAAAMCACAIAAACAAREEAAAAAAMiCAAAAAAGRBAAAAAADIggAAAAABgQQQAAAAAwIIIAAAAAYEAEAQAAAMCACAIAAACAAREEAAAAAAMiCAAAAAAGRBAAAAAADIggAAAAABgQQQAAAAAwIIIAAAAAYEAEAQAAAMCACAIAAACAAREEAAAAAAMiCAAAAAAGRBAAAAAADIggAAAAABgQQQAAAAAwIIIAAAAAYEAEAQAAAMCACAIAAACAAREEAAAAAAMiCAAAAAAGRBAAAAAADIggAAAAABgQQQAAAAAwIIIAAAAAYEAEAQAAAMCACAIAAACAAREEAAAAAAMiCAAAAAAGRBAAAAAADIggAAAAABgQQQAAAAAwIIIAAAAAYEAEAQAAAMCAzMNptOdEmCTTGJcCAKPP5/P5uwQAAALSsIKAZFJZWdnYVgIAAWTHjh39Xi9ZskR2u11m8zB/bQIAEOD4Fw0AbmPx4sXq6OjQiRMnVFNToytXrig8PFyRkZGKiYlRbGysQkND/V0mAAAjQhAAgNtISEiQJJ04cUL333+/rl+/rqtXr8rlcun8+fP6/PPPZbPZNHPmTMXHxxMKAAATCkEAAIYpKChIdrtddrtds2bN0vXr19XS0qL6+nodP35c0dHRSk5OVmRkpL9LBQDgjggCADBCQUFBiomJUUxMjLxerxobG1VZWSmbzabU1FRFRUX5u0QAAG7LrKBQ6Xqnv+sAgAnNbDZr1qxZmjlzphobG3Xo0CFFRUUpLS1NYWFh/i4PAIABzAqJlDwXR3yDJUuWyGRiaVEAgcnn82nv3r3j9rygoCDNnDlTcXFxqq2t1Z49e5Senq6ZM2eOWw0AAAyH2RRil+9rBAGTyaQVK1aMYkkAMHpuXQZ0vAQHBystLU0zZ87UgQMH1NzcrAULFrD8KAAgYLCzMACMoSlTpuj+++9XUFCQ9u3bp85OhmICAAIDQQAAxpjZbFZmZqZiYmJUVlamrq4uf5cEAABBAADGS1pamuLi4vTRRx8RBgAAfkcQAIBxNH/+fMXGxmr//v3q7u72dzkAAAMjCADAOMvLy1NERIQOHz4sn8/n73IAAAbF8hUA4AcZGRnas2ePGhoaWFoUGCZ/rQJ2N1hJERMJQQAA/CA4OFjZ2dnat2+foqKiFB4e7u+SgAmhrKzM3yXcVn5+vr9LAO4KQ4MAwE+mTp2qOXPm6NixY/4uBQBgQAQBAPCjuXPn6vLly2ppafF3KQAAgwmSmKgGAP4SHBysBQsWqKamxt+lAAAMhh4BAPAzh8Ohrq4uegUAAOOKycIA4Gcmk0lz587VqVOnFBUV5e9yJEkdHR3y+XyyWCzyeDz9zlkslpttmOSM8RYIE3J9Pp/27t3r7zKAr40gAAABIDExUSdOnNC1a9cUFhbm11qam5u1b98+ffHFFwNCgN1u1z333KP77ruPEIBxFyhLc06EZUyB4WBoEAAEgKCgIM2YMUONjY1+reNGCPj888/V1tbW71zfEBAdHe2nCgEAo4UgAAABIj4+Xg0NDX57PiEAAIyFIAAAASI6OlqdnZ1qb28f92cTAgDAeAgCABBAYmJidOnSpXF9JiEAAIyJIAAAAWS8gwAhAACMiyAAAAEkNjZWzc3N4/IsQgAAGBtBAAACiMViUVBQkK5duzamzyEEAAAIAgAQYOx2+4A356OJEAAAkAgCABBwIiIi1NraOib3JgQAAG4gCABAgLHZbOro6Bj1+xICAAB9EQQAIMCEhYWNehAgBPiHp6Ve1dVHdb6t29+lAMAAZn8XAAD+4vP5tGPHDn+XMUBYWJhaWlpGtTafz6eDBw/K4/H0O26sEODRrl/9XH88N0PPvfKcUixfnek+X66N7/5ZzVc6lfO3a3VP42/0ky1Vylj1sl4sSlJ3e5NOnL6kKQlzlRhluf0jbnG6eKM2lrhU8MIbejrTPgbfEwCMnFk+n79rAAC/2Lt376DH8/PzJclvISEsLEwmk0llZWVj+hxjhQBJ8qr5XL1czk65vZJuvJ9vO6o31r+reklKXqXCdLsajpyRJJ2+dFWS5D73id7aWCJrwQv656czh/1Ec8hUSS6F8LEbgADEryYAGMSKFSv89myTyTTmzzBeCOgR0vv/N//x667Xpn98qycEOB7Va/+tSHZJtv/0A6170COLLUqSZLWGS5Iiwq0jfHLwiGsGgLFCEAAAgzFqCOjLK0lq0dYfv64qt6TIAq17dbWies+3XzypveVfakb2Ut3TXKkP/lApSXJW/FFbQ45JHR2KXvioCtOjJLXr6K5PtPvACTV7PLJYopV6b74K7su4+bwQdaiu7E/a+tERXfJ4NHVOvp75zkol9htl1K7qj/+g7Z9V6YpHskyN18KCIq0qTFGwpLbaMn2w/4IWLVsq64kSffDpUPcCgDsjCACAgRACJClUU8we7fqXH6vYKUmL9fKrTyuuT4uG8t+puMSlyK4UTdN/qLTG3XPCVaPinTU9X7dnqDDVo1//w3qVuvrev14nT1bpk/qX9EJPR4KK31qn4j4tXFU79fr/2arX/vnp3vDRpPdfXacSZ99GLhVvrlHFqWe14bk8NRz8SKWlTpWW9r3TYPcCgOEhCACAQRACbmjS1rc36ORJt6RkvfSzNUq65dP0G2P7LSFmpT/+T3o58X39ZHOFrIuf1I/+9wx5PV5Z7NN1dNuPe0NApFa99JIemmtXy7kv9MGv3tWxW56amPu4nvlmrszOMr311ja53KUqqf2WVqfYVLv1X3tCQGSu1v7gb5QSZVFL7cf66S+2yFXxG+36Ro7iQ0KHdS8AGC6CAAAYACGgL3dvCJCUeK/S7/TeOdim+PhISVJEbLxio2J7jnvq9G5Pl4KWvvSKitJ7VgWKS8nTmg2L1NZulvNPPU0XP7NOa/J7+xyiivTXubv0ToVLXd5uqbtOHxQ7JUXq+VeeU0rv4kJRKcv0twWf6a1Spy643IrXMO4FAHeBIADAsJYsWTIuE3NH6sbqRaPloYceUnh4+Kjec8Kr36xNu1K1pjBuyGbeG190efscdOuKJFlz9XD6rUuDWmS3STdG+sRO639+SmRPj4Mkyd17H7n0bxte1W/Vs8SrxSI5nT1tTp1sVPZw7gUAd4EgAMCwTCaTX1cHGkqg1jU5ROrZ1/5BIb//J71T4VLV5vX6eO6bWna3s23NUs9gnVDd6couDfFp/c379OfxSA6HQ57WVkWHW6XWYdwLAO4CQQAAYDAWTbXZlP7cWhXUrlOpS9ry+tua9eZ/67fJ2B15pU5JcrerXdKItwu7cR9rgf7Hhqdve5/arSN9AAAMLsjfBQAAMO68khSrp195Xg5J0kn9YsNWtd3NPcxWTZUkVenjQy39z3W36XyLZ5CLBmHtvY+7VB9WD6ygu61Jw70VANwNggAAwLjsWfrBS4/2fO0s1i/erx6yubPkdyqrO6/6o+U6dC5Cyx/tiRGl7/xYW8vr1NbWorrqXfr5936on+w8MbwagpP0l8sTJUklG/9Rv/64Wk0tLWqqr9Wu7b/S9364TjtP3FVEAYBhYWgQAMAwOjyS5FGfKb+ypa/W2uV1+sXOk3KWbNS/zPiRHunqmb7b2js52DY3V4tVrCrV672frO+5MPcF/fK5/6KlR9apxOlW8bs/6bdXQGSIWd7e+/SdYyxpwPGUld/VqjM/1bYal0q3bFTplv7tQ8zBw74XAAwXQQAAYBBW5X3rSUVcCdEMa/8zKSu/pxfse3TRK5nt0qzUp/R4xEVFLZjd0yA4UWt+tk4f/+Fjne2SQhWiuX+RIClKT7z6pvIO7VP5oWO62C7ZpsUqbVGWFmUkSY1PaVXERc2e0X/yQULeX2tVRIvmJdw4HqWiFzcop7Zcn3x2SBfbO6VQm6bHz1P2vVlKibOpfcpw7wUAw0MQAAAYRLCS8gqVNOg5izILl/V5nahlt64oaovTsieeHvTapKxCJWUVDjyVmKmixIGH7UlZKhqkkNiUPD2Rkjdohba7vBcA3AlzBAAAAAADIggAAAAABkQQAAAAAAyIIAAAAAAYEEEAAAAAMCBWDQIw6eXn5/u7BAAAAg5BAMCktmLFitueq62t1ccff6ywsDCFhYXJZrPJbrfLbrcrLCxMJpNpHCsFAGB8mSWfv2sAAL9ITk5WQkKC3G63Ojo61NHRofr6erW1tcnr9So6OloxMTGKiYnRlClT/F0uAACjih4BAIZlMpkUHh6u8PBwRUVF9TvX2dmppqYmXbp0SadOnVJISIgSEhIUHx+vsLAwP1UMAMDoIQgAwCBCQ0OVkJCghIQESVJzc7MaGxv12WefKTo6WvPmzVNkZKSfqwQAYOQIAgAwDNHR0YqOjtaCBQt09uxZHTx4UFarVQsWLFBERIS/ywMA4K4RBADgLgQFBSkpKUlz5sxRQ0ODysvL5XA4lJaWptDQUH+XBwDAsLGPAACMgMlk0syZM7V06VKZzWbt3r1bly5d8ndZAAAMG0EAAL6GkJAQZWRkaPHixaqqqtLRo0fl87EaGwAg8BEEAGAUxMTE6MEHH1Rra6uqqqoIAwCAgEcQAIBREhoaqry8PDU2Nuro0aO6fv26v0sCAOC2CAIAMIqCgoK0fPlyXblyRYcOHaJnAAAQsFg1CABGmclkUm5urioqKvTFF1/onnvu8XdJACDJo12/elufXpCmWnpeS1M1xTFdyakLlbUoXVGWvs3rtOnVt1Tlnqu1//NFpVgGv+vAx4zwOow7ggAAjIGgoCDl5OTos88+U2Njo+Lj4/1dEgDD86r53Ek5nZKz7+GTNaoqLdEWWfXo8y9rdVZcb/OrOuNySzott1fScN/Qj/Q6jDuCAACMEbPZrOzsbO3fv1+RkZEKDw/3d0kADC5EkuTQs+vWaoFN6mhv1ZcnKvTh74tV73ar+J310ktvaHW6XbJl6Afr18njtSjKdhcPGel1GHcEAQAYQxEREUpNTdXhw4d13333yWQy+bskANBUu102m2Sz2xUbl6iswkf0x5//UNtOSsVv/UZLfrlGcWrXycq9+rJrhpauzJdFLSrbWqz6iAw9mmVVyX98oCNnLsljiVH+qqe08kZPwoiv69FSW6bff1Ci2ktXZJkar4XZKQppbZVmZGt5YYqCx//HNWkRBABgjM2ePVvnzp3ThQsXFBcXd+cLAGDc2VX0vbX64u9/oZOq0t7adq2OP6vfbSuWS5FKeThfUWrQ9uISuVSiki19r3Vp5zvr1fr8a3o6K0pqH+F1kup3bdLrm6v6NHGpuL6m52urVFiYIvsY/ySMhFWDAGCMmUwmZWZmqqamRt3d3f4uBwAGZ5mrezOskqQj1Y2S2aypPSd6Pjm++VqSEvX4Cz/SG2+s0+OLIyVJpdtK1d6v3V1e116tjb0hIHHpM3rtZ2/qZ6+t0zNLk3sujQihN2CUBUksbQcAY23atGmy2+1qaGjwdykAcBvBmpUyU5Lk6XDfvpk1V+ve/pGWZSbKbo/Tsm9/S5GS5OnSkB913OG6uk+2yyVJiav0wyfyFWWzyBYVp5y81J7rPV//O0R/9AgAwDiZN2+eTp06xd4CAAKWt6vn3bYlZIjR4xGRsvf9aN4ytecTf4uG/sT+Dtd5uzolSQUr8/vdx+vtGv43gLtCEACAcRIVFSWr1aoLFy74uxQAGIRHp6rrJUnpGQnj/nRzeM8Aos5xf7JxEQQAYBzNnDmT4UEAAlL3+X36U08OUETk+C/+7+64Iknqamnvd9xsDhn3WoyCIAAA4yguLk7Nzc3q7OQzLwD+Y7b2f+1pqtab6zfLLUnJq/RA4vgHgSkRPT0CVb//UOf7TDY493n1uNdiFCwfCgDjyGw2y+Fw6Pz585o9e8cZt2AAACAASURBVLa/ywFgSK06uKdcl8O8unalWadqKlVRc2Ov4WS99N0i+WMfsMT7lsux5S053RVa//0Lys2ZoQtfVKje9VUb1l0bXQQBABhnsbGxBAEAftHRKklulWx+VyW3nItMXqrn//MTSrqRArxe9QzW8cjb93XrLasD3Xp8pNfZ0rV27Spt+MU2udz1qiit71+gheVDRxtBAADGWUxMjD7//HP5fD52GgYwjqzK+/aTirkimW++AwyRPSpWMxJmKS7qluFAtrl66snH1aDpmm2TpNl66slVuhgyT/1a2mbrr59cpZaQeT09CSO9TpI9pUgb3s5X3ekGuWVWpCNFUc3b9fc/2SlHerJfeiomM4IAAIwzi8Uim82my5cvKyoqyt/lADCMYCXlFSpp2O1tyixcpsybr+3KLCwapJ1dWf2Oj/Q66fzRarkdqUpKSe890qLtb++UJE2NmTLsyjE8BAEA8IOIiAi1trYSBADgpjbtfmejStySrJFKjLWoqd7ZM4FZifrL+xP9W94kRBAAAD+IiIhQS0uLv8sAgABi0Yw0h1TllNwu1fdOEYhMLtBzz35bKeO/kNGkRxAAAD+IiIjQmTNn/F0GAAQQiwrXvKpCdcvT7panu1sKtsluY4rwWCEIADCsHTt2+LsEAMAAwbLYbKIDYOwRBAAY2ooVK/z27B07dujatWsKCwvzWw0AAONiZ2EA8KNr1675uwQAgEHRIwBgUhtq+I/P52N4EADAsMzy+bsEABhbZWVlgx7Pz8/369AgAAD8iaFBAAAAgAERBAAAAAADIggAAAAABkQQAIBxdvToUX344Ydqb2/3dykAAAMjCADAOGpsbFR9fb2mTJmi3bt3q6Ghwd8lAQAMKkgsGwQA4+LMmTOqqanRkiVLlJ+fr9DQUFVXV/u7LACAQdEjAADj4Pjx46qrq1N+fr6mTp0qp9Op7u5umUwmdXR0+Ls8AIABEQQAYAz5fD5VV1fr4sWLKigoUHh4eL+egdTUVFVVVcnno3cWADC+CAIAMEauX7+ugwcPqr29XUuWLFFoaOiAnoGkpCQFBQXp3Llz/i4XAGAwBAEAGANer1fl5eWSpLy8PAUHBw/oGbghPT1dtbW18nq9/ioXAGBABAEAGGWdnZ3at2+fbDabsrOzJWlAz0BfERERio2N1enTp/1RLgDAoAgCADCKrl27ptLSUsXGxiozM1Pd3d39egbMZvOg16WkpOjMmTPq7u4ez3IBAAZGEACAUXLlyhWVlZVpzpw5mj9//oCegaCg2//KDQ8PV1RUlL788stxrBgAYGQEAQAYBZcvX9a+ffuUlpampKSkAT0DJpPpjveYO3euzpw5Mw7VAgAgDd5HDQAYtqamJh06dEiLFy/W9OnTdeXKFZWXl2vu3LlKSkoa9n2mTZumrq4uXb16VVOmTBnDigEAoEcAAL6WhoYGVVVVKTc3V9OnTx/QM3A3TCaT4uLi1NjYOEbVAgDwFYIAAIzQmTNndPToUd13332aNm2ampqaVFFRoUWLFikhIWFE94yPj5fT6RzlSgEAGIihQQAwAsePH1djY6MKCgoUFhamhoYG1dTUKDc3V9OmTRvxfSMiInT16lV5vd7brjAEAMBooEcAAO6Cz+frtzFYWFjYgJ6BryMoKEgRERFyuVyjVDEAAIMjCADAMF2/fn3AxmDHjx9XXV2dCgoKNHXq1FF5zrRp09Ta2joq9wIA4HbodwaAYfB6vTpw4IBCQkKUl5cnk8mk6upquVwuFRQUDNgt+OsIDw9XW1vbqN0PAIDBBEk+f9cAAAGts7NTe/fuvbkxmKQBPQOjKTw8XO3t7aN6TwAAbkWPAAAM4dq1a9q3b5/i4+M1f/78AT0DQ+0WPFLh4eG6du3aqN8XAIC+CAIAcBtXrlzR/v37NW/ePCUlJamzs1P79+9XZGSk7rnnnmHtFjwSwcHB6u7uHpN7AwBwA0EAAAbhdru1b98+ZWRkKCEhYUDPwFgym83yer1j+gwAAAgCAAzL5/Npx44dg54LCQnR/PnzlZCQMKBnYKyZzWZ1d3fftrY7WbFixShXBGA4hvqdIk3Mv5sj/T2Eofl8gTFHlyAAwLD27t076PH8/HxlZWXp0KFDMpvNqqmpudkzMJ7Kysru+pr8/PwxqATAcNzud4o0sf9ujuR3ESYG9hEAgEHExsbq/vvv1xdffKHMzMxxDwEAAIw1egQA4DbCw8P12GOP+bsMAADGBD0CAAAAgAERBAAAAAADYmgQAMNasmTJmO0FMBpuN7nQ5/MNOSlx06ZN/V7n5eUpKyvr5uvt27ersbGxX5vU1FQ99NBDN1/v3r1bR48e7dfG4XDom9/85s3XR44cGVCHxWLRd77znX7H3nvvPaWnp8vpdN62ZmAiud2KL4H+O2Wk7vZ30WT9OYymO/0eHy8EAQCGZTKZAnY5v6HqutNyfmvWrBny/MqVK+/4/AcffFAPPvjgkG0WLlyohQsX3vFezzzzjKSeull9BJNZIP9OGamR/C6ajD+H0RYoy7IyNAgAAAAwIIIAAAAAYEAMDQIABU437VDoagcAjCaCAAD0CuQ32hMhqAAAJhaGBgEAAAAGRI8AAEwygbh8aEdHhxISEoZchnA8lhscask+ljwEYDQEAQCYZAJt+dC/+qu/UllZmdLS0nTu3DlJUm5urkJCQu547WgbaogVSx4CMBqGBgEAxkxXV5fKy8uVnJysmTNnasmSJYqMjNSnn37q79IAwPAIAgCAMdHd3a2Kigo5HA7NmTNHktTS0qIvv/xS2dnZfq4OAGCWBt8mGwCAkfL5fDp8+LCsVqvS0tIkSc3NzaqsrFROTo6io6P9XCEAgB4BAMCoO3bsmNxutxYtWiSTyUQIAIAARBAAAIyqs2fPyul06t5771VwcDAhAAACFKsGAUAvNu36+pxOp2pra5Wfn6/Q0FBCAAAEMIIAAPQK5KUjJ0pIOXz4sHJzcxUeHk4IAIAAx9AgAMCoycnJUUVFhS5cuEAIAIAARxAAAIya6OhopaSk6ODBg0pJSSEEAEAAIwgAAEZNc3OzamtrlZ2drdraWjU3N/u7JADAbTBHAAAwaiorK5Wbm6tp06YpJCSE4UEAEMDoEQAAjJpFixapsrJSHR0dio6OVk5OjiorK+kZAIAARBAAAIwah8OhlJQUlZeXq7OzkzAAAAGMIAAAGFWzZ8+Ww+HQgQMH1N3dTRgAgADFHAEA6DVR1uqfCNLS0nTo0CEdPnxYWVlZ/cIAcwYAIDAQBACgFxuKjR6TyaRFixZp//79OnbsmNLT0/uFgezsbMXExPi7TAAwNIYGAQDGRHBwsHJzc+V0OnXmzBlJUlRUlGbOnKmDBw/6uToAAD0CAIAxExISory8PJWVlclisaiurk6StHTpUj9XBgAwy+fzdw0AgEksPDxc999/v3bv3q1Zs2Zp/vz5MplM/i4LwCjIz8/3dwn4GugRAACMOavVqscee8zfZQAYRYE8rwrDwxwBAAAAwIAIAgCAMed2u/XRRx/p1KlT8jEkFQACAkEAADCmOjo6tGfPHmVkZMjpdGrv3r3q6uryd1kAYHgEAQDAmOnq6lJ5ebmSk5M1c+ZMLVmyRJGRkfr000/9XRoAGB6ThQGg10TbtCvQdXd3q6KiQg6HQ3PmzJEktbS06Msvv1R2drafqwMAEAQAoFcgr4Ax0UKKz+fT4cOHZbValZaWJklqbm5WZWWlcnJyFB0d7ecKAQAMDQIAjLpjx47J7XZr0aJFMplMhAAACEAEAQDAqDp79qycTqfuvfdeBQcHEwIAIEARBAAAo8bpdKq2tlZ5eXkKDQ0lBABAACMIAABGzeHDh5WTk6Pw8HBCAAAEOIIAAGDU5OTkqKKiQhcuXCAEAECAY9UgAMCoiY6OVkpKig4ePKj09HRCAAAMwuFwaPXq1QOO9+y8XjduddAjAAAYNc3NzaqtrVV2drZqa2vV3Nzs75IAIOCYTCZt3bpVW7dulaSbX5tMpnGtgx4BAMCoqaysVG5urqZNm6aQkBCGBwFAACMIAECvibZpVyBatGiRKisrlZ+fr+joaOXk5BAGACBAEQQAoBc7C399DodDbrdb5eXlhAEACHDMEQAAjKrZs2fL4XDowIED6u7u7hcGmDMAAIGDIAAAGHVpaWmyWq06fPiwfD4fYQAAAhBDgwAAo85kMik7O7vfsejoaD322GN+qggAcKsgyefvGgAAAACMM4YGAQAAAAZEEAAAAAAMiCAAAAAAGBBBAAAAADAgVg0CgF4TZdMuAABGA0EAAHqxszAAwEgIAhhU09Eybf9ziapr6uXuPRbpSNSChQUqWHqfkqIsfq0PAAAAXw9BALfwqPzXG/RuqfPmEatVcrsll7NepcWbVVr8qV762atKt/mxTADQ3feU+HzsnQMANxAE0E/dH9++GQISlz6j734zX1EWqdvTpnMnDumj/2+zqpweef1cJwBIUllZmb9LAIAJiyCAr7Qf1W+2nZQkJS5fqx+tTLl5KthiV1JmodZk3qvyPx5QjFWSulVXXqzSz8/KeblZV650KnRqtOYt+At949E82YMlqUVlW3eqPjxHTxSlqu7QHh060aykB1dooa1RxR+W6uxFp5qvXFGnQhUdPU9/8dg3lJdk/6qu7iaVbduukiO1uuKxKD5loTLiQ3SpVVr46HKlRwXf+AZU/fEftP2zKl3xSJap8VpYUKRVhSkKFgAAAPoiCOCm9nNHVC9JytAzfUJAfzblFRXeuELlv9mmUnef006n6k/WqGTfl3rj1dWytzdoe3GpXKrUqX1SvbOncUHGI0p1lWtbSWm/uzvr61VTVaIvX3pDq9PtUne9Nn3/dVX1eYarolg1vV93ZRQqPcouqUnvv7pOJc4+N3O5VLy5RhWnntWG5/JG+FMBAACYnAgCuKnx6ClJkmPpI0oc1hXBSszJ1fK5ubovba7sNqnl9D5temuLnM5ildWtUFG8WVMlueRWvVNyZBRo4fRwzYy0yKwZWpy7XPkP3ae58XbJ06J9WzZpS4VTxb8r04r0Ip3Y8r96Q0Cynnn5WeVMt6il8bD+feN7OumWQnr/C67d+q89ISAyV2t/8DdKibKopfZj/fQXW+Sq+I12fSNHhXH0C2DyyM/P93cJAIAJjiCAO+hWffURnfdKIZKkLnVpqtKy0mWXTflPP3ezXXtbu2wJC/VAxp+1pcalVrenz30cevLltSrsO+RHhVrTe3m3p13tsmnhA/fpDxXb5L7SIY+nVtt7P+Jf9fL3lJ/Us1JRXEqOUiN6gkDPxXX6oNgpKVLPv/KcUnofEZWyTH9b8JneKnXqgsstxTG7GZNDIC9zCgCYOAgCGCik74t27dr4jvoP4InUCz/boEyb1F5/SO//dpsqTjo1JEeO7usXAnrufWj7+9r2SYWc7oGXBHu96pSkyKXKS+q7XOktU5Xdbl2RJLn0bxte1W/VE0AsFsnpdEmSTp1slNJvN9wJAADAeAgCuMkc0vNmu7XpSp+jFuU8uVzhbVJ4SJcO/qlY9W6LzJI853fpH17f3LvPgFXJizOVFB+rpsqdqhqQC7rklfTV23mPdm36B23uHfxvdSQrMzlJseFN2llc1dPQLIVKkiVcQ+5acKPdLTweyeFwyNPaquhw6138JGBUbNo18YzmECmWFgVgNGaJX3zoEZ+WJO08KXfVTlW35ynTJkkWpReuVLokqVtd+4pV3/vp/endn8otyZqxSv/9xSJF9d6nXtWq2lk/9MPaT+vTKrckq1a99N9VlH7j6jpVF1f1TFr2qqdHwNmoNklfDey5Jb/eaGct0P/Y8LRu7XcAhiuQh9wQUgZ3t39mmzZt0po1a257DgCMJMjfBSBwWObmarEkyalf/d9/VPuAFv2H5EyJiZYk5Sx94GYIkKTz/XoUbuPGp/iR9+mB9D5XN53XzautVvU8oUoflp3/qk37aVX37XGwWjVVktyl+rC6bcCjutua1OIZcBgAAMDQGBqErwQnavWzuap6t0Luk9v0/VfO6smnHlbqjEjJfVWXzh+/+QbcK8nd2ixJKv3397XghZWaqUv67Lf/puKTrmE9rlOSXCX69R8ztDpvhi4d+0zvvFfcM9TIIyk4SUWPOlRT7FTFe+t1oTpXMzovqKLmlt6G4CT95fJE/WJnvUo2/qO6Hn9O/1tWgtTerJqqz7R5Z4UKXnhDT2fSVwAAAHADQQD9xOY9p5evST/ZXCG5qrR5Y9XARtY4TTFLSUtXKbL4HblcFXrn9YoBzbq8krzenk/4W7vU3fekJV2rCiL1TqlLVds2qmrbLRe7e9qnrF6rVQ0btK3GpfqqCt064CjE3LMkaMrK72rVmZ9qW41LpVs2qnTL4O0AAADQgyCAAZIKn9PbWd9QZcUBfX7yjLoUqs5OafqcZC1cnKXUxKienXotWXp1/Uvasf3PqrvcqdApM/UXjz2qZJ1V+fE2zZ9tk2yz9dSTq3QxZN6ACb9ZT7+qlxJ36M8H6tSpUDkW/IWWP5Css/vK1TZ1fu+cALuKXtyg/PN1anC5ZbZGam6SXcWvf1/b6h1Kj78xcyBKRS9uUE5tuT757JAutndKoTZNj5+n7HuzlMLSoQAk5eXdfnPBoc4BwGREEMCggu1xylu2UnnLhm5niU3X6ufSbzkapaKkG1/blVlYdLurlV64WumF/Y9GLevTvv28qs95lZqepPS4nkMt1Vu1rV6SomW9ZTGg2JQ8PZHCP+YABpeVlTWicwAwGREEENDaz+3WxrdKJEmRjkRZPE1yunqWLUpcXqQkRvwAAACMCEEAAc08ZYYckpySXM4bMwQiVfDkc/p2IRuEAbizTg2+1wgAGB1BAAHNklioV39ZqG6PR26vR93dksVuH3qDMQDoo28I2L59u1auXDlou6HOAcBkRBDAhBBsschm4e0/xhabdk1+jY2NIzoHAJMRQQAAerGzMADASNhZGAAAADAgggAAAABgQAQBAIBhpKamjugcAExGBAEAgGE89NBDIzoHAJMRQQAAAAAwoCD5/F0CAAAAgPFGjwAAwDB27949onMAMBkRBAAAhnH06NERnQOAyYgNxQCgF5t2AQCMhCAAAL3YWRgAYCQMDQIAAAAMKEgsGwQAMAiHwzGicwAwGdEjAAAwjG9+85sjOgcAkxFBAAAAADAgggAAAABgQAQBAIBhHDlyZETnAGAyIggAAAxj7969IzoHAJMRQQAAAAAwIDYUA4BebNoFABgPPp9Pq1evvvn6xtc+3/gu608QAIBe7CwMABgPTqdTZWVlA47n5+crJWL86mBoEADAMCwWy4jOAcBkRBAAABjGd77znRGdA4DJiCAAAAAAGBBBAAAAADAgJgsDAAzj3LlzmjVr1l2fAzDQUIsYBPLiC/gKPQIAAMP48MMPR3QOwODKysoG/A8TB0EAAACMiKd+l15/5RVt+rjuNg3qtOmV/6r/47/+i2o9w73pCK4BMCJmaXw3LgAAAJOD192sepdLVy65b9Pgqs643JJOy+2VNJwVWkdyDYARYY4AAPRi0y5gZG77Xt2WoR+sXyeP16Io2zBvNpJrAIwIQQAAegXy5DZCCiamdp2s3Ksvu2Zo6fIU7dn2iS51RejBx4sUF9ynWVuttn+4X10Ri7SiaPZX16zMl0UtKttarPqIDD2aZVXJf3ygI2cuyWOJUf6qp7QyK+6r+3Q3qWzbdpUcqdUVj0XxKQuVER+iS63SwkeXKz0qeECFgJERBAAAhvF3f/d3IzqHEWo/q99tK5ZLkUp5eK3OFpeoQlJXRr6ezrTfbFZf9oF2lpyUMuZq1QN9r8lXlBq0vbhELpWoZEvfm7u08531an3+NT2dFSV112vT919XVZ9RSq6KYtX0ft2VUaj0KLsAfIXJwgAAw7BarSM6hxEymzVVkmSRWbF6aFWyJKm05JC6bzZqU9muk5Kk5UWLFNzvmr73kKREPf7Cj/TGG+v0+OLInnttK1W7pOot/6s3BCTrmZdf05s/+5nWrX1Gyb1/rCF89AkMQBAAAADjIin/YUVKUk2pTrT3HOs+f0glLknWXN2XMsSkAGuu1r39Iy3LTJTdHqdl3/5Wz708Xer21Gp7iVOStOrl7yk/KUoWm01xKTlKjRjb7wmYyAgCAADDaG1tHdE5jBJ7hgoTJaleuw83SZJO7y2VJCU+/IBih7o2IlL2vkP8LVN7egosUrDXq05JilyqvKS+U5e9o1c7MAkRBAAAhrF58+YRncNosSjvGwWSpKqSSnWrRZ99Vi8pUo8UpIz8tmYpVJIs4aw2CtwFggAAABg3UQsLlCxJ9Qe1p7xU1W5JiYVaFPU1bupVT4+As1Ft/U4wMQAYCkEAAAB8PXczEzc4SQ/nRkqq1+Z3d8otKfeRnK/3Sb7VqmhJUpU+LDv/1fH206p2fp0bA5MbURkAAHwtrXX7tausUer66pjX69WsBTMGbZ/xUKFUsa33VbIeWDTk7IA7C05S0aMO1RQ7VfHeel2oztWMzguqqKn/evcFJjmCAABMEKO9qVggb6CGCcLb887ffbJUm08OPJ1r/46uSJI8/abtWpLyVKBtKpVkXfyAUvrN7/X2v+bG69auPkuODjyesnqtVjVs0LYal+qrKnRrBAgxs5kYcCuCAABMEMN5475jx45htzOiVatWjegcBmd1ZOvJx2Mk88C3E16vV7PmpSr3ycfVoOma3W9l0Cgtf+lZxZy9otk5i/pfaJurp/pdM1tPPblKF0Pm9R8+ZJutv35ylVpC5qnn1nYVvbhB+efr1OByy2yN1Nwku4pf/7621TuUHj/E0qSAQREEAACGMWPG4ENV7nQOgwuOSlHhsjus9lO4TJmDHI5Kz1NR+mAX2JTZ7xq7MguLBmlnV1bf4+3nVX3Oq9T0JKXH9Rxqqd6qbfWSFC32iwMGIggAAIAJr/3cbm18q0SSFOlIlMXTJKfLLUlKXF6kJEYGAQMQBAAAwIRnnjJDDklOSS7njRkCkSp48jl9u/Br7FEATGJmn78rAABgnGzatElr1qy563MIfJbEQr36y0J1ezxyez3q7pYsdjsbjAFDoEcAAABMGsEWi2wW3v4Dw8GGYgAAAIABEQQAAAAAAyIIAAAAAAYUJDFdGABgDEuXLh3ROQCYjOgRAAAYxvz580d0DgAmI4IAAAAAYEAsHwoABtfe3i63262wsDCFhYXJZDL5uyQAE5jP59OO/7+9uw+K6kzwPf5rbNNAK2+CDTQKJoBKBgNRNHTCqONk1SFeDUlMMlcniakyVbl3U1u7OzW1O7WprWxltjKVZLZmt6ZKr3eSysskblwz0Wo1l5pEEgFf7qgxGh2ML4AvAwqCioICvX+grW2DIwR4mnO+n794+jzd50erLT/OOc/x+03HiGiBQGScmk8RAACb27p1a8g4NjZW8fHxio+PV1xcnJKSkjRq1ChD6QbX2rVr9eSTT/Z7G4A7V11dbToC7hBFAACg0tJSSZLf71dRUZFaW1vV2tqqI0eO6I9//KMSEhKUnJystLQ0ud1uw2kHrqWlZUDbAMCKKAIAgBBjxozRmDFj5PV6JUmdnZ1qamrS2bNnVVVVJbfbLa/XK6/XK6eT/0YAYKTiExwAcFtOp1Mej0cej0dTp07VmTNndPLkSf3pT39SVlaWMjMz5XK5TMcEAPQTRQAAcMeioqKCpaCtrU1HjhxRRUWF7rnnHk2aNElRUSxGBwAjhSWKwLvvvqvly5fr6tWr+u1vfxu2/eGHH9bdd98dHL/33ntqa2sLmVNUVKT7778/ON64caNOnToVMic3N1dz584Njr/88kt98803IXPGjx+vRx99NDjet29f2EUzd911l5577rnguK6uTps3bw7L/ZOf/EQxMTGSpPPnz+uDDz4Im7N48WKlpqYGx6tXrw67En327NmaMmVKcLx27dqwc2ELCgo0a9as4PjTTz/V8ePHQ+ZkZWVp/vz5wfGOHTu0d+/ekDkJCQkhF9sdOnRIFRUVIXMcDodWrlwZHP/5z3/WJ598Eva9PfXUU4qPj5ckXb58We+8807YnIULF2rixInB8dtvv62Ojo6QOcXFxZo2bVpw/Pvf/14NDQ0hc/Ly8lRSUhIcf/7556qpqQmZk56erkWLFgXHe/bs0c6dO0PmxMbGavny5cHx0aNHVV5eHpZ7xYoVGj16tCSpublZH330UdicsrIypaSkSJK6urq0Zs2asDnz5s1TdnZ2cPy73/1OFy5cCJkzffp0zZgxIzj2+/06ceJEyJzs7GzNmzcvOK6srNT+/ftD5iQnJ+uxxx4Ljg8cOKBt27aFzHE6nXr++eeD4xMnTigjIyMsN6zB7XZr2rRpysnJ0f79+1VfX6/8/HyNGzfOdLQ+FRQUDGgbgDtXXFzM6mMDNryrCTla6ioCam+47aRtNbGqqqrqdZvP5wteZGbKqlWr9MILLxjNACBcJPzb9Pv9d/T55ff7jX+W3c6d5hvIvL6+7q/Gxkbt27dPEydOVHZ2NkcHAIvr6/PV5/PpodxLBhKhv6KGuXgAACxq/PjxKikpUXNzs3bs2KGrV6+ajgQAuA1+XQMAGDQul0uzZs1SUlKSqqurdeXKFdORAAB9oAgAAAaVw+HQ5MmTNX78eJWXl6urq8t0pKAtW7YMaBsAWJElisDMmTNNRwAA3GLKlCmKjY1VdXW1Ojs7TceRJNXW1g5oGwBYkSWKQGFhoekIAHqxbNky0xFg2Ny5cxUfH689e/aErWgGADDLOdzLFAGwD7fbbToCIsC9996rqqoq1dbWKisry3QcAIPE4/GorKws7PGe0n9s+AOh3yxxRAAAELmioqJUWFiompqasPtcABi5HA6H1q9fr/Xr10tS8GvuITByWKIIbNy40XQEAL24ePGi6QiIEG63W1OnTtXXX39tNMftjkhwtAKA3ViiCNx68JikDQAAE2xJREFUB2AAkeH99983HQERJCMjQ52dnTp9+rSxDDffHb0/2wDAiixRBAAAkc/hcCg/P18HDx5Ud3e36TgAYHsUAQDAsElMTFRMTIzRowIAgB4UAQDAsLr77rt19OhRI/vevn37gLYBgBVZogjk5uaajgAAuEMej0fd3d06d+7csO/7q6++GtA2ALAiSxSBuXPnmo4AoBeLFi0yHQERKi0tjYUeAMAwSxQBAJEpPT3ddAREKK/Xq1OnTnG3YQAwiCIAABh2brdbMTExam5uNh0FAGzLEkXgiy++MB0BANBP48aNU1NT07DuMzExcUDbAMCKLFEEDh48aDoCgF6sWbPGdAREsOTk5GEvAkuXLh3QNgCwIksUAQCRqaury3QERLCkpCS1tLRwczEAMIQiAAAwYtSoUYqNjdWFCxdMRwEAW6IIAACMGTt2LEUAAAxxmg4wGDwej+kIACzA7/ebjnBbd5ov0r+Pm8XHxw9rEVi9erVWrlzZ720AYEWWKAJLliwxHQFAL0pKSkxHuGOlpaWmI9hSbGysWlpahm1/t7tvAfc0AGA3nBoEYMjk5eWZjoAIFx0drcuXL5uOAQC2RBEAABgTHR2t9vZ20zEAwJYscWrQvn37NG3aNNMxAIwwgUBgRJ1PP1RMvg/R0dHKzMwctv1nZGT0ua+MjIxhyQAAkcIpjfxzIqurqykCQAT66KOP9MQTT5iO0afq6mrTESKCz+czdo2Ew+FQTk6OampqVFVVZSTDdT6fz+j+AWC4cWoQgCHT3NxsOgIAAOgDRQAAAACwIYoAAAAAYEOWKAIul8t0BAAAAGBEscSqQc8++6zpCAB6EekX8RcXF8vhcJiOMWwi+aZppaWlwXxDuYJQIBDgInEAuMYSRQBAZCouLjYd4bYcDkdE/3BsV0P5Z8JysQBwgyVODQIAAADQP5YoAnV1daYjAAAAACOKJYrA5s2bTUcA0Ivy8nLTEQAAQB8sUQQARKajR4+ajgAAAPpAEQAAAABsiCIAAAAA2BBFAAAAALAhSxSBZ555xnQEAL2YOHGi6QgAAKAPligC0dHRpiMA6MXChQtNRwAAAH2IkgKmMwAAAAAYZpY4ItDa2mo6AgAAADCiWKIIfPjhh6YjAOjFrl27TEcAAAB9cJoOAMC6du/eraKiItMxgDvm9/tNRxh0paWlpiMAiFAUAQAArqmqqjIdYVD5fD7TEQBEMEucGgQAAACgfygCAAAAgA1ZoggsXrzYdAQAvYiLizMdAQAA9MESRSA1NdV0BAC9ePrpp01HAAAAfbBEEQAAAADQPxQBAAAAwIaiFDAd4btbtWqV6QgAelFTU2M6AgAA6ANHBAAMmc8//9x0BAAA0AeKAAAAAGBDFAEAAADAhigCAAAAgA05TQcYDHPmzDEdAQAAwFYCgYDKysqC4+tfBwIWWInGJixRBCZPnmw6AoBerFy50nQEAMAQaWhoUFVVVdjjPp9POfEGAqHfODUIwJBxOBymIwAAgD5QBAAAAAAbskQRWLt2rekIAHrR2NhoOgIAAOiDJYpAS0uL6QgAevHxxx+bjgAAAPrglLiyGwAAqecix/4IBAKqrq4eojQ3FBcXD/iaG7/f36/5Ho/Hctf3BAIBNTQ09Os5vA939noY2SyxahAAAIOhtxVQbqe/xWGgHA5Hv7NJPfn6+7yysjKtX7++3/uKZGVlZbwPGtj7AGuzxKlBAAAAAPrHEkWgoKDAdAQAAABgRLHEqUGzZs0yHQFAL5YuXWo6AoABuPlusXbG+wCrs0QRABCZEhMTTUcAMABWPDd+IHgfYHWWODUIAAAAQP9Y4ojAli1btGDBAtMxANyio6NDLpfLdAzA1gayJKrVfnMcCAR4HzSw92GAexqGfWAwWKII1NbWmo4AoBdvv/22XnjhBdMxAFt7KPdSP59xbEhymJYT399n8D7A+jg1CAAAALAhigAAAABgQxQBAAAAwIYsUQSysrJMRwAAAABGFEsUgfnz55uOAKAX/NsEACByWaIIAIhMHK2DlUVFRamrq0tRUUP7X2lUVJS6u7uHfD8A7IdPFQAABqC7u1unT5/WpEmThnQ/Xq9XjY2N6u7uHtL9ALCfKCvc9GH79u2mIwAAbOjkyZNKSkpSTEzMkLx+VFSUUlNTdfLkySF5fQD2ZokjAl999ZXpCAB68c4775iOAAyprq4unTx5UhMnThyS1/d4PGptbVVHR8eQvD4Ae4tS91XTGQBY1OXLl01HAIbc6dOnNWbMGI0ZM2bQXzs9PZ2jAQCGTJS62k1nAABgxAoEAqqrqxv0i+OTk5PV3t6utra2QX1dALjOqcB3OyIQCATk9/sHKc7AeL1erVq1KuSxmTNnqrCwMDjeuHGjTp06FTInNzdXc+fODY6/+OILHTx4MGSOx+PRkiVLguN9+/apuro6ZI7L5dKzzz4bHNfV1Wnz5s1hOZ955hlFR0dLklpbW/Xhhx+GzVm8eLFSU1OD41u/L0maM2eOJk+eHByvXbtWLS0tIXMKCgo0a9as4HjLli2qra0NmZOVlRWyvOP27dvDTrNKTEzU0qVLg+NDhw6poqIiZI7D4dDKlSuD49OnT2vDhg1huZ9++mnFxcVJ6vlNcW+njSxcuDDkEPtbb72lK1euhMzx+XzKz88Pjj/++GM1NjaGzMnLy1NJSUlw/Nlnn+nw4cMhc7xerx555JHgePfu3dq1a1fIHLfbrWXLlgXHR48eVXl5eVju559/Xk6nU5LU1NSkdevWhc157LHHlJycLKnndII1a9aEzZk3b56ys7OD4/fff18XL14MmTNjxgxNnz49OPb7/Tpx4kTInOzsbM2bNy843rZtmw4cOBAyJyUlRWVlZcHx/v37VVlZGTJn9OjRWrFiRXB84sSJXv+9L1++XLGxsWGZvF6v8c+HQGDkXweFyHfmzBl5vV4lJibq3Llzg/KaXq837HMbAAaTo6XmP//i/5LbamJVVVU1HHkGxOfzqbS01HQMALfw+/18dlhah+oP16hFycrLSdMo03HuwO3+Tvp8vu/09zUxMVGZmZnau3fvgF/juoSEBGVmZn7na+B8Pp8eyr30nfMAsCan6QAAgP7rqK/QG/+3Uq6xruBjd41JVFZ2oR6cU6ik4fipvK1Gv3nzN2qJnqPXfvWk4oZhl5Hs3Llz8nq9SklJ0ZkzZ77Ta6Wnp4cdxQaAwUYRAIARqLO9SfUN9VJD6OPf7N2lTesm6MVX/1H5SUMcwunUWEkt8aNHxNGA4XD8+HFNnjxZZ8+eHfBpaW63WzExMd+5TADAX2KJ5UMBwK4SHnxOr//b63rt1Vf00nM/kkeSVK/f/HqLhm3BSVa2DLp48aIuXryotLS0Ab+G1+vlaACAYcERAQAYwVyjx8rtcksut+JmLtI/pcXqf/9indRwQHUdC5Tjks4fq9K69f9Ph892SHIpvaBEjy+Zp7RrZxWdP1ylDTvqdd+PHle+s04VFXvUNDpHpQvy5ZLUdvqgPvvDF/q6rkmSS+Mm5so3+0Hljw+G0KXmw/r0ow3ad/ysOlzJ8i3+sRYVDvyH4ZGstrZW+fn5amhoUFdXV7+e63K5FB8fr2+//XaI0gHADRQBALCQURNylS3p+o+Rx/6wSr9cF3rxasvWdXpl6w69+No/Kj9OOrl7oyorW/THuiNSfb16FpW+pB8uyNf5ne/p5bdCV5Oqr/9Weyur9OKrP+l5oGGTXv75ppv3oE2rX1Hryle1rHCoz0+KPO3t7WpubpbX61VdXV2/npuenq6GhgZ1d3cPUToAuOEOi0BAPp9vaJN8B4FAILjM5uR70vRA4T3BbQ1nW7Vl69dhzylbOENj3T1LebZ3XNXajTvC5vzwoXvlTU0Mjj/4ZLuuXO0MmVN03yTl5XiDY/9ne3W2OXS5x8l3p+qB+28sCbltZ42O1IUud5k6Pl7zv39jScx9B+u150DosnGxMXfpidKZwfHxE2dVsf1QWO7/+WixnKN6ztg919qmDeV7wuYs+mGBkhJ6bn7T1d2t99aHr5Tx/VmTNWlCSnC8btMutV0KPQegIG+i7su7sdxn+Zf7daohdCnTSRNS9P1ZN5Y73bHniA4dOR0yZ1ziGD0yryA4PvjtKe3cezRkzmjnKP14SXFwfKrhnMq/DF0SU5KWPjJTMdF3SZIutrXrvzb//7A582fnKzUlPjh+d32lurtDz+ctvj9buXffWMp1Q/lunWsNXX0jL8erovsmBcdbqw+q9mRTyJyMtETNe/De4Hj3/uP6+lDocp9xY6L16IIZwfGR2kZt21UTlvuZxx8Kfn2m6YI2fR6+osiS+fcrfmzPUp5XrnTqgw3bw+b8wDdVE9LHBcdrN+5Qe0foUsLT87P0vckZwfHmz/epsel8yJycLI98M3JuZGq+oE2f3cjk9XqNf3YEAoGwJX+trHlPxbUSMEbRF3bqzWslIG/xi1qxIF/O84f10ZtvqrKhXr/5PxX6j7+bLefosZJa1F5fL0V7VPTANCXEZsjVdlBvXisBCQWP66VlDymuo1kHKjforU3Hb9nzBD3+4nIVZTq164Nfa93eFlV+UqlHCxfJPYzff6Q4duyYioqKlJGR8Zcn36S7u1s7d+4colQAEOqOlg8FgJHqdssfj+TlQ9sOr9ffv1muhKLl+unjU9TV1qYT31TonXWVapeUMOclrYj9WG9uqld03lP61V/PvvHk83v0Dz9brRZ59NLr/yznp7/Qm+X18hQ9pZ+umB38wf3Yljf0y0++lTwP67V/LgtZFajjfJucrjq99je/Vn10kV5+fYXSrl8xfH6n/uFnb6kl4WG99q9lEbWa0FAuHxqJWD4UwO1wahAAjGAtu97Vz3fd8mD2j/TTJ6eqaf3HkqQH5hSGbo/Llc8jbWro0IUO6fpxz2klD4T89r790gVJUsFflYT9MO+Kc9+4SDg+QXE3LxvkGtuzmpBLrCYEABGMIgAAI1nCBOVljZWuSO5Er743vVjTp/bc3Ks1tudq4NHOW38c79CpBklq0Z5vm/WDa49e7ey5mPi66NixkhqUkhIrAID1UAQAYATzFD2hvy7L6XVb57Xf6F9q75BCftfvUopHUkOCZk5Jkk709uwbzz9z6ryUY8cz/QHA2riPAACMZLcsYHAz5+iei+YrN+8MXer/zFf6skGSxira1csTrz8/dqwkae+WL9R8y7bzp89w+wAAGOEoAgBgUZN+sEgJklT/id5YW6Xmjg6dP71H//6Ld3uWCM2bo9zbFIFJJdduUNayVf/yxnodO3NezWeOqWLtG/rZK79QTdtwfBcAgKHCqUEAMBJ19iz32nqbIwJy5+ul5x7UK29Vqn7ru/r51ndvbIvO09+u8GmUpM6rPacAhb2Ue6r+18o5enn1VrV/W65fvlx+08YEObs6daEnhEJum9XZx+MAgIhCEQCAESjac78eXxyvmMzU285Lm7lMr0+4T59u2KpDTVfkckmee0v0PxbMDK4ENNH3Yy2Ob1RmavjhgZTCJ/Vvr87U9sqdOnS8UbrLrZTMKSqceZ8mJXXpx08tVuPoexTyTHemlj61WM2j77HlPQQAYKSgCADACDQqKUfzFvR+kfCt3Gn5Knshv+/tE/K1YELfz3clTdLsRZM0u5dt+bMX9PJonAp7fRwAEEm4RgAAAACwIYoAAAAAYEMUAQAAAMCGuEYAAIBrfD6f6QiDLGA6AIAIRhEAAOCah3IvmY4AAMOGU4MAAAAAG6IIAAAAADZEEQAAAABsiCIAAAAA2BBFAAAAALAhigAAAABgQxQBAAAAwIYoAgAAAIANUQQAAAAAG6IIAAAAADZEEQAAAABsiCIAAAAA2BBFAAAAALAhigAAAABgQxQBAAAAwIYoAgAAAIANUQQAAAAAG6IIAAAAADZEEQAAAABsiCIAAAAA2BBFAAAAALAhigAAAABgQxQBAAAAwIYoAgAAAIANUQQAAAAAG6IIAAAAADZEEQAAAABsiCIAAAAA2BBFAAAAALAhigAAAABgQxQBAAAAwIYoAgAAAIANUQQAAAAAG6IIAAAAADZEEQAAAABsiCIAAAAA2BBFAAAAALAhigAAAABgQ07TAQDAlEAgIL/fbzrGsAgEAnI4HKZjAAAiCEUAgG1VV1ebjjBsfD6fSktLTccwzi7FDwDuBKcGAQAAADbEEQEAsAl+Gw4AuBlFAABsglODKEMAcDNODQIAAABsiCMCACwuIJ/PZzpERGhvOmA6QkTo++9DYFhzAIBpjpaa/+STDwAAALAZTg0CAAAAbIgiAAAAANgQRQAAAACwIYoAAAAAYEMUAQAAAMCGKAIAAACADVEEAAAAABuiCAAAAAA2RBEAAAAAbIgiAAAAANgQRQAAAACwIYoAAAAAYEMUAQAAAMCGKAIAAACADVEEAAAAABuiCAAAAAA2RBEAAAAAbIgiAAAAANgQRQAAAACwIYoAAAAAYEMUAQAAAMCGKAIAAACADVEEAAAAABuiCAAAAAA2RBEAAAAAbIgiAAAAANgQRQAAAACwIYoAAAAAYEMUAQAAAMCGKAIAAACADVEEAAAAABuiCAAAAAA2RBEAAAAAbIgiAAAAANgQRQAAAACwIYoAAAAAYEMUAQAAAMCGKAIAAACADf033oHU789OsaYAAAAASUVORK5CYII=;" vertex="1" parent="1">
          <mxGeometry x="50" y="10" width="770" height="645" as="geometry" />
        </mxCell>
        <mxCell id="UiGgM8e8upT6HwpkXlBG-2" value="" style="shape=image;verticalLabelPosition=bottom;labelBackgroundColor=default;verticalAlign=top;aspect=fixed;imageAspect=0;image=data:image/png,iVBORw0KGgoAAAANSUhEUgAAANQAAAFtCAYAAAB/bEQRAAAgAElEQVR4nOydf1xUVf7/n9ggoGijgaIOhhgIWmyOGsqiibSYRBRaiJjYx0ndkN3gs6v5MVt1l/qa7ifos2SlkYvmzzRWY9EoZEVEKR0Nf4BQioA65iQTjDLATb9/DCA/BgUdYLDzfDx8qOeec+77wn3dc8+5975fVrqC7TcRCARmoVtnByAQ3E8IQQkEZkQISiAwI0JQAoEZEYISCMyIEJRAYEaEoAQCMyIEJRCYESEogcCMCEEJBGZECEogMCOyNtV+oAdWNv1A1hO4CTeqm1SwatverdpYv3kH7Vu/WfV23l9b299zfPfa3rJ+nnfurfU/z5s3JPilkptVWqjRtSY4oLWCesCObr08sLJzanXHAkFXpl5bvdy4WVPOjfI8qL56x3Z3vuXr3pduDj5CTIJfLVbWvenW9wmseg65Y93bC0pmT7c+Sqy6dTdXbAJBl8TKyopuvT2wslPctt5tBdXtwcew6mZt1sAEgq6M1YPDoZtNi9tbFpSNI1bd5e0Rk0DQZbGyegAre9cWt7coKCtbMWcSCExhZdu/xW0tC8q6d7sEIxB0dawesIMW1hVavuW7UdVe8QgEXR9r09OhFgV1s7r1D7MEgl8bLd3BiVePBAIzIgQlEJgRISiBwIwIQQkEZsTiBJWYmMjAgQMpLi7u7FAEgjZjUYLasmULixcvpqKigtGjR3PgwIHODkkgaBMWI6j4+Hhee+01DAYDAJWVlUybNk2IStClsAhBLVq0iLfffpvKyspG5UJUgq5GpwpKkiRmzZpFUlJSMzHVIUQl6Ep0mqAqKysJCgriyy+/5Pr163esK0QlsCxMu0B1iqDKysqYOHEiR44caXFkaooQlaAr0OGCunjxIj4+Pnz//fdUVbXtBdyuJyqJInUGGxMTSdyYTE5eKQbAUJhM9IoUDGbaiz4vmZXb8szUG2DIY+WKZPStrF6UspIVyS3v36DTotVLbQ0CrUZHW1t1Nh0qqDNnzjB27FguXbpEdXXTjEmto+uISse26ElERMeh7d4dLuSwcH44H6h1SJVXUacXm01QVF7ixMXWjfStQqrkxNFLrT6Za8pOkH6p5f2f2zyVqRtOtzGGAqaGBnO6iymqbWnE7oEjR44QFBTEtWvX7rmvOlHt3LmT8ePHmyE686PJ+JD31UoSUuPxsjeWqX5fSqHBFsoAbJBJGlLW/pOsYg3I3QkJi8DbxR6DJpdN/9zMCZ0dj3k/zbSQ31CctonNqSewc3qMp8Om4e3S4PMBmQ1UnSdtYxo7DujwV0Ux3VtBaVYKhf0f58FzGRT28GP6aEj+IIE9eeAdHM7MIC/06hQ+/iILTSW4e4cQEeKNPdCzrm9dHonrM3h0xhy8nWxv7dNQyrYPEjh02Q6yS3CeLastzuGDhC3kGZwIjniZpwdfZPtBoGIzcXyLT/BMBv24h4QP98Agb0Lnz0TpZAuGUlI2fcrXJ3S4jwtiBOkAbP57HN8O8WHm9BEc2ZjAjqMa+rgHsmBeAA5SEcl7ShkzsgcZ6ecZPzMElwYhdgYdNkJNmjTJLGKqo7KykmeeecZs/Zmb8zmpyMPm1IsJALkCt4YnpVRGcZUjQeFzCBpyhYURS8kz6PgkNIqcQZOZEzqO0h1byM36hKjYE0yeM4dxjoVsST/beGfW3SlJjSO1YhgvTJHz/sJwUkoNXD2zm2WqcJbvOEo15SSGhrPDZhILF4ZQuiqK5WmllF0sxnFUEHPCg7gSt5D/3lZo7LNXL2RSEYuD57Ov91hGNYwbHRtV4bx/eQQzQibg5FxXnIMqfCE2k+awMGIYq6JD2Xu1NwpHwGkwIx5xxbrgY8Kj9zApaiEhXqVEh75DKToSQ8NZVejIjIjJlKfvQPegMRnK4GEjcHXpS05cOEs+s2HG/AgUx2OZ+ucUDFI5O+KWEB6xnKOlrb1BbV86TFDbtm3Dzs6OpKQkbt68eU9//vOf/2BnZ8fKlSs7Kvw2ouNkNvSqzeVhKExh3sx5REcvJq2wwS/e1pM5syZQ80MeZ36qBK5TKRkoB3pgTT/XCSzbFI97zRXAFmu7fkyYvZJ4lbLx7moqcA6JJz4yhICQaObKofBHA1SB/9LN7F4bz4uKMyTpnHlhlAMVFXaMC3Mme99p3ILmMGFgDXnfnQFnuKavBGT0qDjA0qkRGOYmsEmlbHQrYyjKYF2JksTYWXh7+zHtaWcqqqAoYwslziF4OUhUyAYS5gxZRbZMGOWM3NuPgIBxXNy9HeeQKThIFVg/PA4P0vn28Nck6TxIjFXhrfRj8dp4nnvKB2ec8X02AL/fSGxK1rFoTQzenkpU/xePXL2W09ckehLI5szdxC+b1emjE3SgoKZMmcLGjRt59dVXWbVq1V33s3//fqZMmcLy5cuJjIw0Y4TmRM7Ip+WUlBsnADLHR/n9n1SM4jTfV9yaFFzL20jAVBW7LoHrI27ANcCJVxJi4LMlhAYHMCE4DmncAhaFGFiiCiVg0gTiMkpvs28ZfVyhqsa4H0cH4xAplRuTNF46eYxjh7MosZnEgkn2bJsXgCp6FyhccXWs7wJ0+ah1cL2i+dxIKr8E8lE416pMqp0Ol1+9ApRz5tgxDmedxGbSXCY5yaisBqpqAAOXrwDllzh27BiHD5fgPXcBAysvAo/j2FC1Uo3xLwMgVaLBmcEOdfHZ4UQv47+dHWl4E9DZdNgcCmDy5Mns3buXZ555hgsXLvDee++1qX3XEJORwaP8YOFyMl7cjp/CBaXSBbtjTuxtUKco4zMIiSc+Ugn6HOLYB5IeaeCzxO8OAUMe8wLmk3VyKs/HxBMUA3nb5jF/13Fi/FrKD6ejUA2Oc4yX67p1VPuBrsA+xk5Xoaw9A3WXj7AgVs7qtHi8bUF9PI7PqgBJ4rrzXHa/P4IFwdGseGQDywJc6vdg23cw6LZwWj8LpT2UXymB3tDP1R2SFExXqWpPcgM6vYzirIralnKGucMux7Go6kZZgw79T8eAOE5qI/F1AEmnRW8lUQHIZIBtP0ZRQtZpHV5KOZLmB/LpiZ0MqMCi6FBBAYwcOZKDBw8yceJELl68yJYtW5DJ7hxGVxITgIP3q6wIOcKy8AA+VvrgeL0EdX4Jc31kUFMO2ODyu5mgimbmeSUlajUgh18KmDc1GpQ+DL+eTT4hhH7zBwL+G3z8h3M6PZ/AFX9psjcbSpKjmXneh57qbPKdZ/O5lz3FqRrjwADgMJ7VYR8THTgBpb8PV9KzKQn5f8QodSwMmInSowR1PsjDJKAGTYkWmVzJ+/GzCY6OwNVpN7O8jAshMsVEFnisIjowGA9nHfklxnZOfvMJ+ziUwAn78PFxJDtbTUj8bmZ4+aBbEsXMvc4ELXqTXkuimXBQiY/jFbLVFaxO/ZwVgXEsmToBpY8H6mwNq1PX4kcJUaHBOA+fybIVgbwSHUxxoD/ZqekoFyTgaVOJRlfecb/UVmClK9hu8pGvlf0jdOvl1m47vnr1KmPHjsXd3Z09e/ZgZ2fXYt2WxKQtzCE9M5tzV6D3IBdGjR3HKDenjr9K3AZdaSFnii5TY90bl2HuKOS2oNdSpJPhopCjK8rjzOVK+g8djExvQO6iQKbTUHD2POU1dniM8sJBZkBTeI7zl3/CTvEoXi5NEoTotZTqDFT+WETp9d6M9PVCDug1pejtnXCyv/UT0Rblkl9aTo+HXHB3U2CPjrzcM1TaDcLVEfSSHIUTlBYZcHJxQAZoiwrR2w7AxanBzZWkIy/3JOUyBUP7yTDI5Cgc7AEDRbnfUVoODymG4ubigAwJTV4u58tlDP2NFw5oyf0un3J6oBjqjouDPSChLSqk+HIlvQa54qaQI+lLyT11AVn/oXi5OKAryuVYwU88OOQxlG4OgL5RnB3JjYoCbup/aFbeaYICMBgMjBs3DltbWzIzM+nTp0+zOi2JSb0xmuh1alD6E/awDQUZqah1EJawm0gvkaBT0L60JKhOvZjb2tpy7Ngx/Pz8ePzxx8nOzmbQoEH121sSk6Ewmeh1avxjPmJZiKexMGYxpTnJnLazpPFJ8GvDIj7fyMjIYMSIEXh5eZGfnw/cfs507vAOIIQFdWKqReEdQoCbJa35CH5tWISgALZv387zzz/PmDFj2Lx5820XIDRnSyBwDMZVVAltaRFFRUUUFRbdxTtjAoH5sKj7o7pl9JdffpnU1FTGjh1rsl4PRzkUGF+clGFgV2QESbV5OcPidxOpFHMoQedgMSNUHe+99179CmBL9O7lBOqjGB9v2jP7831kZu5mthwLu0QI7ltuWtD3UPeKm98LQDpvxGWgh1Y9xxIIOoIueSbKFAFsWHqKiNhlBCYvw9nZmZKSEgAWWHfJQxLcJ3Tqc6h7RdKVknuyEG0N9OjxEI+MGN7oIaZA0F7cKD/DzWtnm5V36bNPJleg9L2956lA0JF0yTmUQGCpCEEJBGZECEogMCNCUAKBGRGCEgjMSIcLKi4u7p6tavbs2UNcXJyZIhIIzEeHC2r06NGMHz/+rvPqrVu3jqioKMLCwswcmUBw73S4oMaPH8+nn37KSy+91CZR3bx5kzfffJM1a9aQnp7OgAED2jFKgeDu6BBBxcXFcenSpfr/t1VUVVVVzJ49m8OHD5Oeno6Ly62EIZcuXRK3fwKLoUME5eHhga+vL0VFRfVlrRVVWVkZzz77LFZWVqSkpNC3b9/6befPn8fX15dhw4a1a/wCQWvpEEFNmTKFxYsXExISwtWrV+vL7ySq8+fPM2nSJJ544gn++c9/YmNjU7+trKyM559/ntdff53AwMCOOAyB4I502Bxq7ty5BAUFMX369EauGy2J6tKlS0yaNIlXX32V2NhYrKys6rdVVVUxffp0nnnmGebNm9dRhyAQ3JF2EVRLS+N//etfGTBgAPPmzeNmgw+06lb9jhw5Ul+2detW/vGPfzQTzM2bN5k7dy4DBgzgb3/7W7N9FBcXizmVoNNoF0G1tDRuZWXFunXruHTpEm+++WajbYMHDyYmJqb+/zExMSZv5f7yl79w6dIl1q5d22jUAjhw4ADjx49n9OjRZjwagaD1tIugbjc3srGxYdu2bfz73/9m7dq1zdp+8MEH9OrViw8++KDZtnXr1pGSksK2bdsazafAKKaXXnqJTz/91GItbgT3P+02h7qdqPr06cO//vUv3nnnHVJTU+vL16xZw6JFiwCjM/yaNWvqt+3Zs4eVK1eSnJzcaKUPhJgElkO7LkrcTlQPP/wwWVlZnDlzBjCK6fXXX29U5/XXX68XVX5+PllZWY2eQYEQk6CzMJ2kpUM+gb/TSW9KTA155513TObnE2ISdBY3yvO5ee1cs/IHFv/hxeWmGlh174uVzUNm2fnDDz/M6NGjeemllxg9ejQPP/xw/bY7iQng66+/Ri6XM2bMmPoySxeTpCtkf2YuRcXGJJyFhYVUP+hAzurFFLhMxF3eydkHDDq0OokePboDBnLT9nK552D6i5wcreJmlRZqdM3KO+w5lKml8daIqY6Gt39g9OytW9WzRAzFmSyLXcaXmZlkZmayL3UfP5QZuJyupviq2eyq7z6+c5uZOnVbvXG25tRRiitE1t17pUNGqDoefPBBxo0bB7RNTHU0HKnGjRvHgw8+aNb4zEn15WNsyn6CTR/9kYkTJ/LU00/h/hAcS97EL0/NYEx/iayN7/Lu+h3knO3GoyOH0qMboC9k47urWb8jhbPSQEa696e6NIsvcquw0x5lZ6aW4Y8q6rPrGEpz+OJwET/8Zz1/336Mfo8M4ccv1/HOx2l0e/hxhjraNu/T9SbJH37Mt+fO8ZOumCvdBjLQFvq4jaB/j+sm4jKQk/wFFyo17H7vPXaeqOTRMZ7YN7kca3LTSIj7BykHj1Nhp8BTIadUnczby+L4Wv0jfT2GM8BeMt1XtYa0pAT+sSGF4xcMKNxdkXc3EUt1EclfnKSXnZZdOw/z4HBPOmOw7/QRqiltFdO9tutwrAHdUZIzMkhLSyMlJQtNgwEgy5QJMxriAlXstfFlzpxAClZF8efkQqSrZ4hboiJi+Q6u6Gsa7Ua6epK42CVk4YW//AgLI0L533MOPPlYJbHzl1NoMNHnF5cZpHAEHBk2YgQD+8o4tiqO9GJ9C3FJFOyIY2H0Lh6a9BR2yXH8KSm38fHq1cyLisUxKILQcY7sSTxAsXqNCYNq032pP5lH7IlBzJkfyqDC3aQXtBCLBRpVN6RDtV1cXMzOnTuJiYkhNTWVl156ic8//5wnn3zyjm3379/P1KlT+fTTTwHj2xjTpk1j8ODB7R32XdIdOEtOZiZ2QFmlI8Oeety4qbqADck6Fm2OwVsB3v8Xz66A5Rz/roxkfNgcE4QCiE34nsCoTH5OqELus5TPVwaY+IVV4RwSz0qVEqlQz/up1Xy0eBb2Uh47kmL56cxXJvo8wv8kPga7ujMlIABb9JyUg80N03Gd1vtSjQerU+Pxtoeia7v546Umt4eGn9EB3a174TphNmsDJFKiA3AOicFBqoCHx+FBLMdLo0z2VVNuvNrb9XFlxsq1yAx5zIs2Ecu15bVG1YuxxARyHTZCNX2LoW5JferUqezfv/+2bRuKqW7OdK8fKrY/1SB/keXLlrFs2TLiV0biVudS/otpE+ZfDBUgH0FTqwMZ0Kv/nV36DHXu0VBv+txSn0iArppGsmghrqY4DPWmV1XTwvEkxITw2UIVwQGTmBn3NZdMGFQPlkkm+xr1SgIhfIYqNJhJE2aSUazvMkbVDekQQbW0ItcaUZkSU8O2bf1QsUNpesJiHLewc6w3YQbqTZgfdHoEdHspqL2T0WmKwbn7PYXQ3bGFPmuMiqgT6e3iau5h11RNIOl1DHw2ht2ZmaR+NJeS5Cz6PgIVjmNRqVRERqpQvTgZVwcbE339gk4aTEz8bjIzU1ngUcKugl9ajsXCjKob0u63fHda3m4oqqa3fy2JqWlbi1w+rzWmbiqoCh1USQNRrQgkvIkJ86MPu7MiMIHowJn4+/ckPT2fuR8tpmflekqqakztBaSqW9tqRSIBSBIllHCj3wSTffZ3PAYsI3TmLoYHL2fwbeLytIW9JRpqJBP7rMVwdjtTo7bi4eMP2enIA1fwzMtBfB7a1KB6A+XN+rrGrtBgkuQe+A+H9Hw5K/46GjdTsVigUXVD2vXB7p3E1HBOVVe3TlRNxXS7OZNFPpMyaCnSgKKRobKEtqgUmZMLcltMmDAb6xTlHqZAA0O8RuPmZIuk16DR26Nwan6j02ibpKOoVKrdp4HSIi1yFwX2JvoE0GsKOXW+gv5D3bHXa28Tl4S2VIOtkwJ7GS3Go9MUcfb7Ump6Kxjl5WI8bkNTg2pb033JJYoKzlJaXoPi0VG41C7dWZJRdUNaerDbboK600luantd2SeffMKcOXNMbmtLfwJBe9GSoNplDnW3J//48ePZtGkTc+bMYdOmTW2aM3WJOZXgvqddBHW7txhaElNdshVfX1/Onz/Pt99+2+wjxdaIqunbGAJBR9IugoqJiWnTXMdUspWWlsXvJKqmHyoKBB1Jhz6HMiWmlpKt3E444vZOYKl06nOoOyVbEaISWC6daFptak51p2QrddxJVGLOJLAkOs1j98033+Tw4cOkpKQ0yw9hCrEsLrAkbpTncfNaUbPyTnnb/HbJVlpC3OIJugIdLqjbJVu5E0JUAkunwwXVUrKV1iLmTQJLptPmUAJBV8ai5lACwf2KEJRAYEaEoAQCMyIEJRCYESEogcCMCEEJBGZECEogMCNCUAKBGbE4QR0+fJiBAwdy+PDhzg5FIGgzFiWoAwcOEBwcTEVFBc8//3y9d5RAYHGY/hzKcgR14MABpk2bRmVlJQDXrl3jd7/7HRcvXuzkyASC1mMRgmoqpjrKy8vx9/enrKyskyITCNpGpwuqJTEB/PLLL1y+fJkpU6aY3C4QWBqdKqjbiamOmpoavv/+e6ZNm4YkCUMwgWXTaYJqjZjqqKqq4siRI6hUqg6ITCC4ezpFUG0RUx2VlZXs2bOHRYsWtWNkAkFrMb3M1+H51u9GTHVUVlbyz3/+kwEDBlh8MktJV8iBb0qBGujhwJBH3HExkey/czGg1RiQO8nbdCIYdFr0MjkOwuC6GR06Qt2LmOqorKzk7bffZsuWLWaMzPzUmVZnqtV8uSGaiNBA5q3JamZv06lIBUwNDeZ0G4M6t3kqUzecbp+YujgdZlq9fft2Xn75ZbOs1kmSxFdffcXIkSMZOnSoGaIzP9VXj7Ep6wk+en8BTz/7X8z4nQvrV7xJicvv8B3Sm6Ksjax8dz0pORcY+KgX/Y2O1W02aTaUqkla8x4bUo7ws21/Hh38kIm+q00aRRfs/JC9355Dd0XH+Qvd6F99nDVrP2HH3q85W9ELT08F3YFSdQpr3ltDysGzWPe8zr8/y+DcaR26svN0GzAcRe9bAf1ajKtvVl2Bmp+blXfYCPXKK6+YdenbYDAwbdo0s/XXLjRwMLRV+PHObDmpx39EmxVHxJK9eM+Yw3OKHKKmLqXQ0IKR9e1MmnVqVOHRFDpOYkbQENI3ZHLWZN+mjaL7DjK61A4eNgJXl75UXCzGcVQQc8KDuBK3kP/eVohOvYbw6FU4TprBZI8rJB/Uo3AEnAYz4hFX+to2OJOFcXXHzaH279/P5MmT+fDDD4mIiLjnvqZMmcLy5SYHV4ulpgo4cpLUI8koF20mxFsB3u9yNimQr45/w3FThtG3MWkuythAifMCklRGM2tvXz3bZgY27/v0VWxMGEW7jPXBmX34PhuAlwzAmQfUh1B/dxac4Zr+ZzI+3IrHgkRUAW6AN35A4cbN7Kr2IyDAs3FAwri640aokSNHsnHjRl599VVWrVp11/00FFNkZKQZI2wfGk5PpCqQ/3YYVhXw2NA6G2kZ9s7c3jC6BZPm8ktnkf/Ws9FVsdpU302oN52uNbaWDAA6ts0LQBW9CxSuuDoCVHM1HzzdHBu1r6wGTFmUCuPqjl2UmDx5Mnv37iU2NpbXXnutze27mpiQg9F8U6I0ZyPRyTpm+g2j/3DYlVFQW0nDsRLo1XdAm02a+3n6oNuajrb2/zrNNRxM9W33QJOWtabTkkQFIJMBhmJ258tZnRbPdD8/Rjwsp6LKnmH+kJx2sradhFajhyrTAQnj6k5YNh85ciQHDx5k4sSJXLx4kS1btiCT3TmMLiemGkCXREBwEhjPB0KWbmC6pxwpaikJ4dHMLPanZ3Y6+R4LWOzpjr6NJs1O418iRB7O1Al5KD3yUeeH8fnmpXzQrO+erDdlOm3/MH6UEBUajPPwFwhS6lgYMBOlRwnqfJCHSYxVrUAevoQJZ5V45KvJD4ln+xgfdEuimLnXmeB3PmK6p3GsEMbVnZjo8urVq4wdOxZ3d3f27NmDnZ1di3XrxLRowWyGej2JNTVgLWfg0CEM93SpHQVAm5fBgfxrtdt74jjUC29Pp3Y7htti0FJUogdrQGaLg5MTDR/bSLoiDh8rgAeHMFrpVn8MbTdp1lOUd5bL5TBomDsKua2Jvls2nZb0peSeuoCs/1C8FDLycs9QaTcIV0fQS3KjMbVeS15BMZWyXri6uyG3ldDk5XK+XMbQ33jhYHsrml+LcfWNn09z8/r5ZuWdmjnWYDAwbtw4bG1tyczMpE+fPs3qNByZfG0OEpVUgrNSCWfVlOgAfIjfvRKlHHITZzbbrpybQPwsr3Y9DsGvj5YE1akvx9ra2nLs2DFsbW15/PHHuXDhQqPtTW/zrLsD8rkkxsezaXcmqdvj8Seb6Ig1aKHZ9tVhzqjXpVLaGQcn+FXS6Z9vAGRkZDBixAi8vLzIz88Hbj9nMtT+be+k5I0NMaDbyuEiQ/32ulvzvg/1BGw67bZA8OvDIgQFxjcpnn/+ecaMGcPmzZtvuwDRUCAyp6E4A5fLDUBP0J3lVGEh6oxtLH8/H+cwHxya9SAQtA8WdfF+7733AHj55ZdJTU1l7NixrW5rXAjuAaSzUJVuLPRYxL5Ib8s6SMF9jcWMUHW899579SuArUF3+ltKAM+BcuAKyOeSlpnJikBnyN/CgVKLeh1VcJ9jcYK6M7Xvx0kGStXJLIhOAv+ljGtwXycBfov/lzDnEpaFLyXP0EJXAsFdYyHfQ90LNdWALongCUn1Zc7+C9i+LABboKaiBHQVtYsSTkR+FM/xwGjmh65h++5IOumJlOBXRJdyMNRriigpM76xLpPZ0cfRCQe5bYPthZQY+uDpcmu4MmiKKPixkoHuno0eQAoE98KNn09x83pxs/IuJSiBwFJoSVBdcA4lEFguQlACgRkRghIIzIgQlEBgRoSgBAIzIgQlEJgRISiBwIwIQQkEZkQISiAwI0JQAoEZsThBJSYmMnDgQIqLm7/WIRBYOhYlqC1btrB48WIqKioYPXo0Bw4c6OyQBII2YTGCio+P57XXXsNgMH68VFlZybRp04SoBF0KixDUokWLePvtt5uZCQhRCboanSooSZKYNWsWSUlJLTpzCFEJuhKdJqjKykqCgoL48ssvuX79+h3rClEJugKdIqiysjImTpzIkSNHWu0ZJUQl6Ap0uKAuXryIj48P33//PVVVVW1qK0QlsBxMJ2npUEGdOXOGsWPHcunSJaqrq++qj64iKklXSEZaBhlpaWRkqSnStOy0p8lNIy1X04HRCdqLDhPUxYsXefLJJykrK+OXX365p766gqjaYlpt0JziVLGFGh4J2kSHmVYPGjTorkclU0iSxObNm/mf//kfs/VpTm5nWj3aOpcvcquw0x5lZ6aWoc62dOvjxs/ZWziKK+6OtoCBnG1JFNoPZ4D+KP94+++sTzmOVb9HcO+jY9vadOQjPendTUfaxl08MOxR5DIDOdu2cKGXnOObP+STnTv4+shZeik8cTKcZP22E7gqh2ILSJoc1icXMfw3g2/lkjOYMI2+cZHkf7xN3Pqv+aEzWUEAACAASURBVNGqH8Pd+yOV5vDF4Qv8dGQ37368k8p+j+I5wB6DJpekhDg2pBzkQoUdrp4KpKIs3l35LjtScpAGPop7/x6UZqVwtKoHZUd3kXnpIR4d3LvzflF3yc2qH6GmuUdVh41Qf/vb37Czs+M///kPN2/evKc/eXl52Nvb88Ybb3RU+HdHC6bV0tUzxC1REbF8B1f0NVw5vJbY9GJ6VeewKvZLoxmC/jRvvZ+E9Y3vUIUvxGbSHBZGDGNVdCgpl/Uc2hrHcS2g/YbYde+z9YgOOMf/vb+OGtvrFFc5EhQ+h6AhV1gYsZRC+17kJMXyRZ7x1jN3y0KSLljTMLNac9PoiySGhrPDZhILF4ZQuiqK5WmlSFdPEhe7kB0XH+KpUXbERf+JXIOOT0KjyBk0mTmh4yjdsYWz57MIjFgCvjOIeE7BqqipJBcZuHpmN8tU4SzfcRTzXWItgw4T1Guvvcby5cuZMmUK+/fvv+t+Lly4wG9/+1tCQ0N5/fXXzRhh+2M0rS7kGlXIfZayb/daFqt86W7TC7mNDLfJKuQlm/jOANrs7eg8FuH03RZKnEPwcpCokA0kzBmyztgR6ANHv9dQevgQANnpJ9FrfqCEMB7t78mcWROo+SGPMz9VAtepxI3fh8lZt+sUUMqGZFj00qjG8TUxjZ7Z9yhJOmdeGOVARYUd48Kcyd53GqjCOXA18THTCZoVjhKQJAPlQA+s6ec6gWWb4umVuQGUS1kc5I3ST0VCmJy41NNQBf5LN7N7bTyzfC3Ndvre6NBFicjIyHsSVVlZGT4+Pnh7e9cbC1g6zU2rPekJ9Opvwn1PPop5Sh3JmWrSd2QT8ntfrl+9ApRz5tgxDmedxGbSXCY52TB8kj9Hs/aze3cZKzYkMPzoDv79VRbOYWOR5W0kYKqKXZfA9RE34BoAXsHzIDWZjIzdqOVzmahoHEEz0+jvje69l04e49jhLEpsJrFgUm3+XRvr2lYDeMy5JzU48UpCDHy2hNDgACYEx3HBcA35Y01ds437dHSwRMvpe6fDUzHX2dNMmTKFPXv28OSTT7aqXWVlJRMmTKBfv35s3769PUM0H41Mq7cQnaxjwUeuUJPVqJp1/b9k+EbMZlV0NNn4s8FLju3P7pCkYLpKVet6bkCnlyHvNwFil7HVeTZpLl4wSs2ydTA7YTFnM5ZDSDzxkUrQ5xDHPmPvCl/mOq9i2bJsAt/e3sRFXao3jY5Bz7Z5gXx5xei4Pna6CmVtZZ3OAMVZjdoZ/9IjDXyW+N0hYMhjXsB8frAbi25tNjqVJ3IkNMU6nEdYQ0W9bfZ9R6fkNm+rqCRJYsqUKRgMBg4dOtQRId47LZpW26NX15pG11UtL0FXe2LKvfzxIYnTYc/iIgP85hP2cSiBE/bh4+NIdraakPjdxCjdGAUUPO2DLfDY0yGQnsFIVznudjNBFc3M80pK1GpAXrsnOb97NZB1SzQ8N7pppneDCdPo55lR9gXRgRNQ+vtwJT2bkpB4Up9sHH95iYaaqgLmvRgNSh+GX88mnxD+EhbClbURBM8sxL9nNun5ShKWeiIlaGjQ/L6iU1Mxr1mzhuXLl99RVC+++CIHDx4kNzcXW9sukqD8NqbVDU2jAfTaUnQyBxS1edq1pUXg4NIgF7uBotzvKC2HhxRDcas1a9YWFYFTbT1JT1GpHoWLEzJAV5THmcuV9B86GJnegNxFgT2Qt3Em8y/8kczF3iZi1pk0jdYW5ZJfWk6Ph1xwd1Nga2gY/y1DbJleQ8HZ85TX2OExygsHGSDpyD18jJ94EM/RSpxsQa8pRW/vhJN9l/KqaMSNn09y83pJs/JOz21+J1G99tprfPrppxw7doy+ffu2ezz3NYZcggOi+K8NaYS4dJELk4XSkqA6/RJxu9u/1atXs379eg4ePNhITHpNHtmH8rlmLcfj8ZF4KuRo8tTk/nCesmvQz20k45UuyNCTl1NAnxHD4dJpfrR2xctF3iyGXw/9iE3YgLsQU7vR6SNUHU1Hqg0bNvDqq6+SmprKqFG3lne1OYlMXZgEzkqUqFGXwOrU3RwNDGarswc+jtfIVpcgD1nN7rnWzAyMpv46EhZPZqSyw45JcP9isSNUHQ1Hqk8++YTf//73bNy4sZGYoJSPFybhHLaaTZHGOYAmLw+ZrZxRmZkYezCQs0bFwr0n0b06hp6AR8gi/jr3KRy6yvxL0GWxGEGBUVQ2NjZERESwevVqJk+e3LiC/iongKf9RtQXOXl6YnxNJ56F76fequvRHRnGJzBPP/0UTvZCTIL2x6IEBaBSqVCpVG1qo8/bxML3UwlbmkD4JC9khYkEzr/1Ukt1jQEQghK0PxaRU6LV2PflMeCzvd/WPrWRKMzJ4UcDgD/BAV7IZRIFR07UP3rp2VmxCu5vbt4HptWg4JX42aRGL2NSchxydOiQE7/xDZxJInzC0doygMeQJAkNUG7qmwmBoB2wmFW+tmDQFvHdiXNct+7BEI8RuDjYY9AWcujwGXAcxshhvbh0Bdzc5JTmncPW2ROn+/PVMUEncUN3gpuVpc3Ku6SgBILOpiVBda05lEBg4QhBCQRmRAhKIDAjQlACgRkRghIIzIgQlEBgRoSgBAIzIgQlEJgRISiBwIwIQQkEZsTiBCVMqwVdGYsSlDCtFnR1LEZQ96dptQ51RjJr4uJI3JZGke5evyPRk7wijtyWnXHaiIGUFdFsy7tNh4ZCVs5bSZ7BXPu8dww6LVp9W3+WBrQanUn3E3NiEYK6P02rNawJDiZ62X56ubhQfiiWiOCpZJTey5kpceloHpLZvmKTUXZUzU81tznNbCVO5GdTaUHflJ3bPJWpG063rZFUwNTQYE6383F06geGkiTxX//1X6Slpd3RtHrnzp2MHz++gyO8e0rT4tmqC2Rz5mIUACEhjFk5gSV//xr3iBr2XvRAFeQJgCZnG19d92bWOBnJHySwJw+8g8OZGeQFpVnsKerPyB7nSC98gG5OcP67DA7v3UVx7yeJ/kMITjIwlObwQcIW8gxOBEe8TJDSCa06hY+/yEJTCe7eIUSEeGPPrbqX7fpwWgfPmYo/ZxsJWw5h1wdKcKo9UfRkbUxgx1ENfdwDWTAvAAcZ6IuySPhwBxpDH56as4AgLwdKs1Io7P84D57LoLCHH9MbmQLoUadsY/vXJ5C7j2Na+DTcZOfYmJDIUY0B96fmMC/IC6k0hz2nwbHsKDsOFfNkRDTPDr7I9oNAxWbi+BafZ57iyr+3kFWsAbk7IWEReLvYN9uHp51RgJv/Hse3Q3yYOd27XZIiCNPqdqJInY18diANT6PRz80FdRb6HtUkrYqrvY3S8fnC97lgfaMF65iG1jc3sSefuIW7eGjcU9glx/GnpFzQ5TS3vCmVKLtYjOOoIOaEB3ElbiH/va0Q9Ln8MXwhl0cEEjLBg14mYtfnbiR84SZGPDeDCR7GlM0SkBUXzpLPbJgxPwLF8Vim/jkFg7btljXqNfOJXlXIpBkzGHIlna/OniUuUMVeG1/mzAmkYFUUf04uNGmbc9qqLwpHwGkwIx5xpa+sopl1T56h+T5OWTkCMHjYCFxd+rbbSNIpI1RZWRlPP/00P/zwQ6t9drvWSKXjTDb0etG6Uamt4xDgM3SKxYTxPntP6/Ec/A1bUbLO6Tvm6pyJGeVARYWMcWHOxO47DeFG65vPVwYgQ0fiPg9Wp8bjbQ9F13bzx0sSRRkmLG9OawgKmgPqQ6i/OwvOcE1fSdFXn5DvEcO+WQHIMPB03Ps09k408FXCOjwWJDLLzw2k3nz8fixU5bEhWceizTF4K8D7/+LZFbCctH851VvWgDcJebuISj1NAkbLmmUBTexqpEI2bC1hQWIiAW624O2NoXAjAfiwOSYIBRCb8D2BUZn8nFBnm+MNFPL1uuVINi5MGOXMrmo/AgKMI7zzLBsOHVBzts66x9B8H0h5nPrkEL7PBuDVjme9MK1uF+SM9JNTUtH4NlZ/MRfw4WF7OYGLlCR/kY06fQeERDDo+lXAtHWMSesbwGGoN72qoNyk5c11ts0LQBW9CxSuuBov0JRfOovc26O2P5MGpVzNB2+vAcb/SrVZ/aVKNDgz2KG2mswOJ3ohVbfRssZQwVmccRtw64ZLqqwA+Qia5vSVgQnbHKishjq3Ab0p656q5vuoOw7JbIsrwrS6Qxk8xg+2fohaW1ei498JW8HfGyfAxXcGzumxRL+fz6KQ4dgPdAWM1jGqyEhUKhWTn3C/w16MF6R+ru5QYrS8iYxUoVK9yBODrrE7X87qtHim+/kx4mE5FVXQd/BwdLuyaxPZGNDqmvZpj7MP7MooMP5XX27MvNuzH6MoIeu0sYGk+YF8etJ3sDO6pLr+ai1relk3iK5p9wPxoYS047U/GEnHNdshoNtLQe1io05TDM7dmzRsIP6qW2Pq2YzPaq17puPn86hRlD2b70P7UxUVgKyd78k67JavzrT62rVr99xXV7j9c/CdyyL/QKKnTkDp78+V9HRK8Oejd/2MFeSjmKGEVeowfF1sgfGsDvu4ddYxdeeWZNzmZNLyZgsvKHUsDJiJ0qMEdT7IwyQUE8NRrooiODgHZ10+JUBYo8hl+MxeQOz8aIKPe6DLz8eYk02BakUg4dHBFAf6k52ajnJBAhOf7k3gqrZY1jjx0ooQwpdM5YTSaLcTEv8ZKwI/IDpwJv7+PUlPz2fuR4vpWbne5LE/7OWDbkkUM/c6M2XBC/BWU+seU/v4GD9KiAoNxnn4TD5aOZ32yNvTYUlaevfuzc0WcpndLVZWVpSXNzcOtiQ0hbl8X/oT1g8pGOHl1uiXaNCWosEBl1u+Na22jrGXNbXFMWF5I+nIyz1Dpd0gXB1BL8lRONkj6UvJPV6ETPEI/WQGZHIFDk2sZfSleRwvKkfxyFBkhlt2OLqiXI4V/MSDQx5D6VZ7/3cXljV6bRFnf7gMfQcZjxOJotzDFGhgiNdo3Jxsmxxfw2OX0OTlcr5cxtDfeCHTmLbuaboPmb6U3FMXkPUfipeLg8m4WssNXS43Ky80K+8wQb333nu89dZbbXItbIn8/HzGjBlDdHR0l/PZFdwftCSoDrvle+2117C2tm6zFWhTurJpteD+p0OXze/WX7eOrmhaLfh1IUyrBQIz8sDiP7y43NQGq+59sbJ5qF12OmbMGHr27MncuXPx9fXFxcXltvUlSWLy5MmUlZV1HdNqg4a0pAT+sSGF4xcMKNxdkXevRp38D5bFredUiRWPjHRHdjGHLw5f4Kcju3n3451U9nsUzwH2GDS5JCXEsSHlIBcq7HD1VGCrL2Tju6tZvyOFs9JARrr3p7o0iy9yq7DTHmVnppbhjyq6WsL6LslNw2WQKpqVd4qgoG2imj59OsePH+fo0aPIZDJAoignlc2fbiE1/TAlehjkOpge3QAM5KZ9wYWeQxhQv8IkkZu2i9PVjgxx7EZexl6yjp8iP/8HSjRl3LC256HedSttBuP2UwX8UFBAQUEBp46dosZhCP3bYLKsXhvOkryxvDHfj+v7NvG905OQPJ/oL4ewfPkMumX/D39KG0ToI9/zx8WrKVM8yVOP/Mz/vr2FUTP82RU8i6MTX2G+30C+SUym3+TH2Ro4i8xHZ/CHaR58/cZi0uS+TLRT84c//ZXkwz8yyPUxxioHC0F1AC0JqlN/9q25/XvttdfYt28fx44dq3WAN5CxMpRlqTo8/EPwdqzis1VLWLfKn49Sl+FpL5EVG0dVvB9Kp1si+TY2jqSwh/HzdCc7bhVJeKB0BbU6HwDnwEV8tDgIe6Ta7c54OBnNcK5prhHs9Tu8nFp/bDXlxkeddn1cmbFyLTKpkMXRJYQs8kK6WsnAcWEQe4jL4Y7NX6+RDJQDPbCmn+s4lm0KwFC4kegWXs+59WqSoLPp9N9BW02r9XmfsSxVR9jq7UR6G89wVUQg0YFRvL7uaXbHjMBGTrNH4t2dwdnmVtnsd/4PlactIFGUlUTEklUsHTKY+OmutdsTa7ffHaNeSSAkdimq0HWAMyvW/5mrgF3xGY5drqIKG+YuGIfsl+9NvF7jxCsJMcQuXULoOkAewscrbFp8PaelV5MEHY9FfA8VGRnJ8uXLmTJlCvv37wdgw4YNLF++nC+++IIhQ4bU1y05shcII9y7wXBh78WCBUp0yUfRAt2B8nIter0OrVaHXq+losnoXFVT91KXDBdfFatD5Kg3fYuuQXvJYECv16PX69v4YZqEThpMTPxuMjNTWeBRwq68X3AFHMdOR6WKJFKl4sXJT/DQA43bGf/SIw18lvjdmWSmfYSHLpkTvwxuxes5gs7GYi5srTOtBs3ZEggZ1exKPcDzMWAfxfoIujtB6pIIUpvU8bjN/kf4PwfJ+zirn053J0heGE5yg+1hCbuJ9Gq615YwsCs0mCS5B/7DIT1fzoq/Po7n22GERgdyUOmD45Vs1CVhbIk38WpRVQHzXowGpQ/Dr2eTTwh/Gf0UKwLX3vH1HEHnYjGCglaYVgM9esuh/DoSTYK3BuiJDKjWQMjbm3n1cTkGCWxlOjaFh7PvNvuWpCrAETuZsX3gikR+/1gvDLWDhr1Da8UEYI8qbTf+BWcpLa9h9uJRuMhl4BRJ2ueBfJdfCj1ms9TdDTlaNg+0r283a/MabB9SsH33dgrOnqe8Jpw/j/LCAVAs/pwhgcbXc8Ln172eM6NBe0FnY1GCgjubVvd2cILkHLTL/Gi4RlCQsQvkzzHYHr4FbHrLsbW3r/8qs7upL+nqkfjmi60gn4uzLWQDvR8agNzU5wetxVaOi5eSpmuXtg4uePs2LHVCUb8bGQ6K2u+H5E54KZuugshw8fLFxatBiX3D9oLOxiLmUG3Bze8FIJWVG9X18xpdXjLLt+rwmOmDHOMcyPS3PkYazjwkg5asjUuJTYewN6Zg34r2AkFL30NZ3Ah1J2SKAD6KOcT8uGgmrXPGw7mE/BJAOZdPpnsCeip0zY2qq0ugpMpYWA1sjQpma4PtIYs+ItLbocX2AkFr6LIeu3pNIcdzz6EDBjoPx8tTUf8VqqawEGmAG4oGD3Y1hYUY+gzBxUGGprCQslrByOz6MEDhxK1ntqbaCwSNuaH7jpuVF5uVd1lBCQSdSUuC6nJzKIHAkhGCEgjMiBCUQGBGhKAEAjMiBCUQmJH7eF1YhzrtS/arz1Fl48ijY8bgO9oLeXsktBYIark/RyhDESuDg4mOfZ/LNr2xKT/BqiVRBH+i7uzIBPc59+UIpf7kDVJ1Hqz+fA3eDsZD/MOCXL5Q23VyZIL7nftQUKWkbS3BY8FH9WICkDl4ERLQiWEJfhV0mKCUSmW79a1WN7iV01/lBDDJq2kCe4Gg/enQEaqgoOC227/55htUKhVubm4UFhaSmJjIE088cds27u53SqgvEHQcFrMo8c033xAZGckDDzxAQkICDzzwAJGRkXzzzTdt68h+IL+Vw66MU+0TqEBwGyxCUN988w1RUVH4+PjwwgsvMHDgQF588UV8fHyIiopqo6gc8JupRLd1IRvVmvpSbW4ycRtzzR+84NdJC74XnS6oOjG99dZbHDx4kPnz5wMwb948srOziY2NbbOoPKcvZYEPrIsOZcKEYIInTGBqVBx53a3v3FgguAc6dZWvTkwJCQl8/fXXhISE4OhotNpzdHQkJCSEb7/9loSEhPp6d5pTGXFg+spMnizMJe+cBno8iOKRYbg5tSUvhEDQdjpthGooJldXV3bu3Fk/OtUxb948kpOTGTJkSL2o2jJSObl54RcQgJ+vtxCToEPoFEE1FNMTTzzB2rVrG41OddSNUmvXruWJJ564K1EJBB1JhwuqqZi0Wq3J0amOulHqypUrXUpUkq6QjLQMCnW3klNI2jzS0jIo0rWcsEKn1aKvy3epySU5Ldd86WIMhayct5K8loybDTq0Wn2bu20Y86+dDhVUUzEBLY5OdTQcpYAuIypDcSbLYpehWn+0tkRi39/nExu7jNSzLZ20BnZOncq6QuMZLxmKyVFrzCcoW4kT+dlUttCh4dxmpk7dRtuM0hvH/OvBArIeNRVT3ei0d+/e27abN28eU6ZMYd68eTg6OjYSlcViXZusLDmR3Fe98TIcJilbjjM66lKsF2Vt5MMdRzH0eYw5C2YzsHgX+4CKpHhsBg9j8nMP4620M/6S9IVsTEjkqMaA+1NzmBfkhVSaw57T4Fh2lB2HinkyIpqQZrn8oDRnGwlbDmHXB0pwMvZnKCX5gwT25IF3cDgzn+7Hru0HAYiPK2eYz4uE/IbGdYK8sEWPOmUb278+gdx9HP4jbjSKOXheCNLhxsfl5SCRk/w1vcc8SklGOj38ZuKruD9f++/QESo5ObnRKt2dRqc6mo5SYBypkpOTb9Oqk6mpBo/ZxARq+GRPIXlfbMAx5g2CPaAK0GbFEbFkL94z5vCcIoeoqUu50HMQjoDT4GE84jkQ2Y+HiYvNQI+GuEAVe218mTMnkIJVUfw5uRDp6kniYhey4+JDPDXKjrjoP5HbZKDQ524kfOEmRjw3gwkeRrFJ6EgMDWeHzSQWLgyhdFUUy/eVM0jhCDgybMQIBvatbl4nrRT1mvlErypk0owZDLmSzkF9n0YxXz/Y/LgKDRIFO1YxPzyCHUevcD8nju7QEWrQoEH1/27t6FRH01GqaX8WhzWgsWf8X2OIC1UxHw8+ShtB7nqAa6R/kIxy0WZCvBXg/S5nkwI5eC2GUXKo9ptCgKct+ryTAPxS+BXJLVjZNLfCaRiEga8S1uGxIJFZfm4g9ebj92OpLs4gSedMzCgHKipkjAtzJnZfEctVj8Gu7kwJCICiZBY2rZOejuFQCQsSEwlwswVvb8DAxo/ero1ZYtvMhc2O66vTP2ODM0s3JxGguA/fx25Apy2bt3Z0qsPUKGXx6PTYO40nxhkIUeFpK6O6dlN1BTw2tG4pX4a9M4BENQ2dQYxIlRUtWtk0t8JpiIGr+eDtNaC2I+PWXyquAnDp5DGOHc6ixGYSCyY5GcWoq0YCpHITdX5rx1mccRvQ8Hatccymj+sXoCcO8vtbTNBJgrrTyl5LNFzx6ypIyHj2/c/Z/ao3t9I729B/OOzKqHtZWMOxEuhlJwMdNL1xsOn3SCusbEytNNjj7NNgP/pySgA7J6MH1tjpKlSRkahUKiY/4Q41VdTt3X6giToTvPGhhLTj2tpd6tDqfmkQs20Lx2X07Lmfb/Xq6JRLRltHpzoajlJvvPFGO0VnJmrKARujS4jcoX50qdBBlSRjUtRSEsKjmVnsT8/sdPI9FrDYsz8nA+UsiQrnoPMo/vjH3oANOE1gRWDCHa1syks01DTSlQyf2QuInR9N8HEPdPn5gBweGs/qsI+JDpyA0t+HK+nZlITEkznLE1hG6MxdDA9+m9VhNKuzeUUI4UumckKppEStJiR+N2MaxPznZUvhlabH1ZP1zWK7P+mwzLFKpZKCggK0Wi2TJ09m7969bRYUwJUrV+rdDh0dHXF3d2/8PZSlYNBSpAUXhUODQgltUSkyJxfktiDpijh8rAAeHMJopZvRKUTSU5h7igpZf4a72qPRyXBRyAGJolyjlc0QrzorGw0avT0KJ3tj36UabJ0UNM0grS/N43hROYpHhiIzGJC7KLAHtEW55JeW0+MhF9zdjO30mkJOna+g/9DhuDjYmq6jLeLsD5eh7yDc3RTYNozZywVZs+NqObauyo2y49w0XGpW3uGCevvtt7lx4wZLly69677eeustAN544w3LFZTgvqYlQXXoHOpu505NudNcSpuXwbZtKeRpG95jGFCnJZOcltvGB5cCQevp0AF43bp1dzV3asqdVvwuZn/M+0klyC86sjvGGwBD0R6iY+NAPhu/AC/uz8eKgs6mQ0eoHTt23PPoVEfdKGUK6+49AdAlJ6LWA0gcSlpv3Nir+/2YmUZgIXSooMwxOtVRN0qZoqb6Gh6zVzDXI5///XcRGI6yLL0Xi1aEQUW1yTYCgTno0Iv1hg0b2LBhQ4fsS9NdwbNRYayL+pDEiyXg/yq+Q86xSicEJWg/OkxQHb4SV1GJ3GsqgYSSlAyLNvtiX3mmY2MQ/Oro9JwS7YsTYYt8wGMBExUgVXZ2PIL7nft+fu4StJLMIOO/9SJHi8BsWMD3UB1GeQk6U++2NXgdSCBoD+5LQbnOSCRRGtCs3NZ1Bh8lgn0nxCT4dXBfCsreyQ1TL03J7J3wFMb2gnbkPl+UEAg6FiEogcCMCEEJBGZECEogMCNCUAKBGRGCEgjMiBCUQGBGhKAEAjPSYQ92e/Xq1W59V1RUtFvfAkFb6NA3JW7ebMFH8R6wsrIye58Cwd0ibvkEAjMiBCUQmBEhKIHgLmhp8iIEJRCYESEogcCMdJqgrpz6ik8//RenrjTO7vpt6na2px7HAFw5/hXbvzolvrAVdBk6TVAXMtfw7rt/5Y+f3PLJNZzdzfylK1n5v4cwABcOrWTl61/RdhvlzuduTavvHQNaza0EAJrcNNJyNXduVZhM9IqUNqWpLkxeyba8rvjbaT86TVDWNsYP0cu2fcC3tdldD3z8kXFjbxtkgLVNb+jTu0t+Vnx3ptVmQCpgamgwp2sVZdCc4lTxnR98S5VXUacXt0lQlZfOcrElB+z7HgtL0lJTpWfE3Hfwy36dt/91luQXNLy+tzd/eedZ/rqyqrPCMh93MK2WtGqSPv6CQk0lcndvwiJCcLGn1kw6kf2XwX2wIwNGBTNl0IUWzKkNqJM/4MM9ebg+HszL84K4uNOYnnrz3+P4dogPT7m5MULWB4BSdQqfbv8anZ07QeHh+Lo18ES0BjBeyPRFWSR8uAONoQ9PzVlAkJeDyfa9GxxuXloiGWUjmTdd2SUvgOaiUxclLtoMZuqfIjj/7j/44L3V8HQ0E4f2hrLOjMpM3MG02lB2kXLHUYTOCWXIlTgidXG8DgAAEnhJREFU/nsbBrSsCQ1nfbkHEaETKN+7lfVHf2zRnFq9RkX0DhuilsQw7MoqQpem0XuQAoDBw0bg6tKXq4fXEptejE69hvDoVThOmsFkjyvs+Oqs6bi1WQRGLAHfGUQ8p2BV1FSSiwwttu9tJ6M0ZTHzY3MY5e/1qxYTdHaSlvJK5I9P53meYd02+MuuJ7G/frpTQzIbtzWtBnu3IGah5rD6FBdxhmt6fi5KZ6tOyYZl03EBer34MdkVMsCEObWhkO1bSwhZ5IV0tZKB48Ig9v+3d/9RUZf5Asff2IgkwzqrkJMxiSiIUtiOGVpCR01S11C6rZkU3JYsNz0d2Hvd5aRnde+xPW3eLvyhpni8HfRournNamldBOm6+KNSSG4iQWsI0zprg87CoAN8Ye4fgIAw8us7DODndY7H43e+zzPP4PnwPN9nnuf5nMZn0zIMHGf2MzFEaKDwGz90NJK7fT9hq3eRFBMCRDLHRbP/9uluMK4ndXEkEMmWi4dYc/Rr+Lpj+cJdIzm+49dk5o9ky+EMIm5PAnwXGgDT5vfz4u+ehPBf85RhiJ3ueoek1Rf3vMqzSRsp9R5LeHAAVANVlaCbjr75HqXtMey3J6duuMk1oKr8WwoKznCuYgQrV89C05wiVGn3MFTHtWKYEtJ1ogalrgbdw4bbrjZ2Wn64N1TkFwM3uGsfpW4zAAIKgpemkb/nRbSA0uF019pBPW3eedLqGs5+WExc+j5S4mJ4PHw8AL73TQHbTk6YHYCNv5VWwIiONQIw4j6CgYCZz5OU9DqvJyXxi6cfw9+pUA1omsceTT9OLZPngSnrm1t1WC2dT4z4GQzYMk815aFGwVJuw+D3007L11ffIHHHR2xJrGHts29TNpj/o1TiuSFf1WWud5YXvM3prvW1wPWdzDXuvPXyTxN2kJM8o79a2Xt3TFrty/x4I0nJi7hsNJCfXwEkouij2Lw8jLUrYtjUfL8hBFBqO0lOredf/7CcZcmLOGl8nIAfT5FfsZzDJ55lDhWsWRaLYWo8b4xtOkV3ZtLv0a14k+hLRsKK8ymOS+dEirFDe++bu4pFmxKIjS9lnu8pcoqNbFk/ham2juXTay38WOVDRNJWEo/HkpD4AIf3vsTdPPLrtxy7fn5+7bZv2K98yw/KA0w2tD/HVbFf4dsfYPLk+3FcucTla+3HgPeOHk/w/a1lvLy8BuZ+qC6TViuYLxbyw817mRgcgN0GgUH+aACH3Q5aDWffjuGdgC189Px9LpNTO6xlnC82w8gxTAwNwV+rQbGbKbzwA5qxEwnWOrBp/AnU+YDdysWScm5q/AgODUHXNo2j3UpZS4JsxUbhmQIqGcWUR43ofVrvaVteYzNj1+rRNzWE0u/t3B8SNGQSU99Jw/V8cPyjw3WPBZRaBmxA9YqdXbGLyNQbMdbkk18RxuaPMoj077qk6F+uAuou+F0ymGh5PmM3M/7+D6rqf0nqtIjW3kEMChJQA4xWH0SEPsjTzRC9NCBm+YQYdFw8vUhACaGifh3yyYEqYqjrt4AaOjNxQrgmQz4hVCQBJUSvdD4rIQElhIokoIRQkQSUECqSgBJCRRJQQqhIAkoIFUlACaEiCSghVCQBJYSK3LaWr76+Hr1eT11dXdc3q2T48OFcvXoVjUa2eQnPcFsPlZ2dzRNPPIHT6ey3P9OnT+fUqVPu+khCdMltAXXs2DEWLFjgruo7FR0dTV5eXr++pxBtuS2gcnJyPBJQp0+f7tf3FKIttwTUpUuXuHHjBhEREe6o3qXZs2fz5Zdfoihy4qLwDLcEVHZ2dofeadiwYXh5efXqz7BhnTczIyMDrbb1jL5Ro0YxadIkCgoK3PGxhOhSvwVUXycc2rp27RpLly5l+/bt1NTUtHstKipKJiaEx6geUHV1deTl5TF//ny1qwaans0efvhhQkNDOXPmTIfXn3zySU6ePOmW9xaiK6p/YXP69GmmTp3K6NGjVa23rq6OdevW8cEHH7B7927mzZvX6X3R0dGsXLkSp9Mph8KIfqd6QGVnZ/P000+rXS0zZ85k/PjxnD9/njFjxri8b+zYsQQEBFBUVER4eLjq7RDiTlQf8mVnZ7Nw4UJV6xw5ciSrVq3CZDLdMZhaREVFybBPeISqPZTFYsFsNvPYY4+pWS3l5eXdCqQW0dHRHDlyhFdffVXVdvSUrSyf/8kpwO49muDwh5gREYK9KItCIoiJ0HddgRjA+uGQluzsbObPn+9ymru3ehJM0BRQnu6h7IV7iE1I5nQVaOu+ZUNyElvO2bqdlV0MTqr2UNnZ2fz85z9Xs8peCQ4OBuD7779nwoQJHmnDpbwPYVE66c1JzZ6PfwWrokUpac7K7ijD9KmZGT8bSW7OZaLi49AUmdiy/VN4IJJlr8Vj1Fn55NNSxgVc5eODp/nJkwn8Ks6IJOQYuFTrShobGzl+/LhbJiQqKyt7XMbTvdRP7g+Go+9iyruIxeYAH3/8tRquNmdlR6niYNqbrEjYyDmzneqCbaxI/pS5a9YSF2EmedkfMSvX+CBtA8kH/870p6aTm5bM3oudp/IUA4NqAXXu3DkeeOABxo0bp1aVtzz44INkZGT0qEx0dLRHv+ANitvI71eGkvbmayyLjSE6Po1SBzDCD90IDaDgyyL2nThM+oZfcPnAfgxxC/FXqhk+fhZh5PD132vx1S3ncHoKixe/wMthUFsvy6oGMtUCyp2ry2/cuMH27dtZunRpt3srT/dQoGPOSxs4ceIER/+0hXkVJjYfKm1/iyGApoVTDv7xI1B1hYKCAs6cqSBy5Woe1Ci0Zq3WMPGRMGolngY01QLK3avLz5w5Q2hoKNOmTSMnJ6fL+8PDw6msrOTq1atua9OdmL/Io6x5dKbVTyUiDPBuycre7NbchI7JoVAdMJOkpCRefz2JpF88TfCYDingxQCnSkDZbDYuXLhAVFSUGtV1ytvbm3feeYfMzEwSExNZu3btHXcDe3l5eXR/VPU375GwKJpXk1N5NXYuacWPkzI/hPqqCmy1ClCPxVZ16/6Zr/0Bv/3JRMcnk5ocT3RMAhcc7e9Rqiy0SQYvBiBVklabTCb279/PkSNHXL+Rl1evk1bfXrayspJXXnmFy5cvU1BQ4LLezZs389133/Huu+/26n37RsFaVsrfzJXUjxzDQxFT0GnAbjU3Z2VXMJc50DdnfgfAYaXwfDFVjCRwYihB/rS7x25pk3VdeFTDtbNQ+2OH66r8zxw7dqzL1REtWzF64/ZyY8aMwWQykZGRQUpKisty0dHR7Nmzp1fv2Xca/IOm4H9bulytfyAtG04Cg7TtX/TxJyJydrtLbe/R6lvLioFJlR4qNDSUEydOMGnSJFUb11eKojBq1ChKSkoYNWqUp5sjhhBXPVSfn6GKiorw8fEZcMEEoNFomDlzpmyLF/2mzwHlicNYesLz0+fibtLngHLH6nI1efoLXnF36fOkxKlTp/j888/VaIvbDB8+vOubhFBBnwOqN+vshBiq5GxzIXpFklYL4XYSUEKoSAJKCBVJQAmhIgkoIVQkASWEiiSghFDRkAsoxVaK6UAWFsetK5Tmmvgkr6z1JoeZLFMWFtlOLlQ25AJKwzXStm7ioxJb8xUrf96QxjtvmrA0X7GXHGZTWiZXJaCEyoZcQKGbzEodnPyqvOnf1u9oWhqby2Vr06VLX52EsFhC5YA7obJ+20ttNBrdVnd+fn6bf+mYtsTAzuPnsSdF4CjOw2ZcTtyP+8ktthI524fzxysIi5UDI0UfuDjNoV8PJygpKVG9ztDQ0A7XgmfMhcy/coWXqM47ivGp3Sy4fpLXviondbYff62AeUaD6m0RYugN+QBt8AwMFPPNxVIKjsKsh4KY8OgTkHsBc+k3FGMkwiD9k1CfR47P6axX6ak79nbaYBYY4OCf/kw1Rv4YCD6OmRhs7/Lhn30hbCETJJ6EG3jsPKqWgCgvL+e3v/0tAO+99x46na7Lsl0HpJZHY43s3HoUwlKYoKE5yCrYeRQeT1krz0/CLTw25HM6nWRmZvLcc8+xYMEC9u3b161g6q4JEdMBMESFNQePjvAnmp6bfvaQPD8J9/BYD/XCCy/g5eXFhx9+yPjx47tdbu/evd26z2dKHLu2PIpfcOtRaFNX/JEts28SHCL9k3APjwXUwoULSUhI6PbhlxaLhdTUVOz27qZz0RISMaXdFR9dIBHqdYJCdOCxIV9iYmK3g+njjz9myZIlzJgxgwMHDri5ZepQbKXkZuVSamtdjqFYL5KVlUuZrYdLNBQLWaZcLAo4bFasdlniMVAN6Gnz69ev88Ybb7Bt2zbef/99Vq9ezT333OPpZnWLo/wEGzZtIOn9c81XFI7/52ts2rSBo5d6mDRNqebCF19TrcD3+57l2d1FqrdXqGPABtTnn3/O4sWLGTduHIcOHWLq1KmeblLPDPdu+tu0i0IHYDtD5ikdBmBE80C7LG8PqcnJJP9+F4VWBXDwhcnEF/m5bEtNJjXN1LSAV3MvIT97hJ/8M58/nQQ+20fatl18YXZ0UgeY8z4ht9RMftYeDuSZ+/+z38UGXEDV1NSwfv16Nm7cSHp6OqmpqXh7e3u6WT1XXwdhiaQssvDfn5Zy8ePdBKSsIzYMagFrXhoJb35G5Au/ZEngF6x5dj2lDoWSg2msTT7EmLlPca8pjX/LLATlKhlbN/ADowkMAPQPEj4pmGHnt3VSB1z79jAbklaw8eA5XCf8EX3T+dqjAZUX5ezZs6xdu5ZZs2Zx5MgRfH19Pd2k3hsOWLRE/UcKacuSeI0wdmSFU/g+QA0575kw/mYfcZGBEPlfXMpcxLGia4wgjM1H04nUQlnNYd64ogAa/DCAbxDR0w0cqptDTIyBA/EbOqnDxuxamLd+HxtiAj37M7gLDYiAqqurIz09nb/85S+89dZbzJkzx9NNUofNjlb/L6QYIO3RJKb4aDjb/FJdNTw8sWXKUYPW0NRzteU/MRK/svbXbtZBS9a1O9UR4C+JbzzB40O+oqIili5dSnl5OUeOHBk6wdRMQcMzWz/i8K8igZbZuRGMnQqHcluWT1koqAC/e2+fcLk9xIDaljyiPi7q0LgqKfqBx3qohoYGduzYQWZmJuvWrSM2NrbLMk6nk927d/dD61RQXwWMQAE0On9a+pFqG9QqGuauWc+WFcnEl8/D91QOxWGrSZ3iy/sVFm4leldqqaitBwUqqKAeGBfxOLY31xD/mYHFv/53+N3tdWi5dEhSh3qKKgnXusNoNN5av9eSfNrX15e3334bvV7fZfm2a/7OnTvXrq72+6EGCIeVMisEBfq3uahgLTOj0Qeh8wHFVsaZghIYNYFHjSH4oGA1W/DRB6LVgGK3YLFrCdSDucyOf5AeHxQsFwu5XKVh4rQIdI7b65DUof2hofJLqOt4rr/HfuJLliwhPj6+yy93W3qlrVu3snr1ahISEpg8eXI/tbIPfPwJ6jAnoME/qDVHqEYXxOw5Qe1fD2wtpNHqCWx+FGpNDapBP8XIrV9BPrfXIalDPcljAfXiiy92eY/NZmPVqlW9WvMnhCd4LKB6uidq/vz53brPYc7n0Ff/ZN4zc/Bv8+kshVmctuiJi4no0fsK0RMeCSh3bIW/RbnM1rQ0eGgWz99aVW7lozWb2L88nbgY9721EB6fNlebT1AUy4G9x1rXuymWfPYDv1k0yJYviUGnX3soNba+d82f+avD2L81C/PrRgKB7//3ILCcmUGyD0q4V78FVH9ObYc8+Rxs3cTJ0mSeD3FwbGsxYStT8O+6qBB9MuSGfADoHyNRB3tPlICtgP3Ac3PU+05NCFeG6Dd/Oua9bCQz7SifeFtAl8hjgUP0o4oBZWj2UEBQ1HMYOMo7O/N5/OVoZOe76A9DNqDwf4QFzYcbPR0lwz2htkGwH0pdWuLe3cW06/cyVWYjRD9xGVBe3qP7sx1uodWHENH1ulsheq6x8+X8rod8w4Zw5yVEXzU4Or3sMqCcddfd1hYhBjOnYgdnD3so580rbmuQEIPZnWLD9ZCv3obTcdUd7RFi0HI21OKsKXP5+h2nzRv/+X84G26q3ighBiOns5FG23lwuj65987fQzXW0Vj5ZdOYUYi7mLNRofF6Qafb3tvqeiqv4QaN1lN4+Qbj5RuEl8z+ibuI0+nE6bDgrC6Bhhtd3t+96HA24LSX4rR/B95j8NL4wjBv6OZh/6KPnE5cZkkW7uFsgIabOGsrXc7odaaH3Y0T6qw466w9bJ0Qd4ehu5ZPCA+QgBJCRRJQQqhIAkoIFUlACaEiCSghVCQBJYSK/h8CdkiRZTlUBQAAAABJRU5ErkJggg==;" vertex="1" parent="1">
          <mxGeometry x="-212" y="10" width="212" height="365" as="geometry" />
        </mxCell>
        <mxCell id="UiGgM8e8upT6HwpkXlBG-3" value="" style="shape=image;verticalLabelPosition=bottom;labelBackgroundColor=default;verticalAlign=top;aspect=fixed;imageAspect=0;image=data:image/png,iVBORw0KGgoAAAANSUhEUgAAACEAAAAiCAYAAADRcLDBAAAC/0lEQVRYhe2XTUhUURiGn4mBuIMOcisQQ2lRQrWaGuUmiLacFqEp1aoUdxNoixKhjUQLZ6WzKCgQ1EDRtKiFgvQzjhAU0yymQPyhBh01ULziEa8/I6dFaZR3dGb8K/CFb3POxzkP33nP4TsWIYRkn3VovwHgAOK3DiDW9P9DNDY2kpGRwejo6P5AtLW1UVNTgxACp9NJf3//3kI0NDRQVVXF4uIiAIZhUFJSkjSIJdEXs7q6mqamJgzD2DCnKApdXV3k5+fvDkQ0GqW8vJze3l4WFhZi5iUDEheEYRgUFxcTDAZNK7BdkC09oes6hYWFBAKBuAAgcY9sCjExMUFeXh4jIyMsLS3FtWAyIDEhBgcH0TSNyclJlpeXEwJIFMQUIhAIUFBQgK7rrK6uJgWQCIipMe12O1LubK9jsViYm5sznTOtRHt7O4qi0NzcjJRyW+Hz+VAUhbq6utiEQghpFp2dndJms0mPxyOTlc/nk4qiSI/HY7rHWsSEEEJIv98vU1NTZWVl5a4BbAkhhJChUEiqqipLS0vlysrKjgMIIWRcL+bMzAyappGdnU1PTw+KosTM7evrw+VyUVtbi9vtXh+fHv7AG/97vk2B/fgJzmsXOH8qHWssY/4tVVUJhUKMj4+Tm5uLrusJAQSf3uZKxV0efp7DfniJoWf13K24ypPQ7ObGjBVOp1NmZWXJSCQS1xFMBVukw+GQd1o+/jE+8LpFdgUn4/OEWbhcLqmqqhwYGNjSAx8fXZYOx335bZP1kmpqOjo6KCoqIicnh9bWVtMjWNP3r2NwKYejAESZjoQJh8OEh8NMz0cBsCYDAeD1egEoKyuju7sbTdNM82zH0mBolihgZZGX7hs0/7LC9YZXuM+lba/R9Xq96zcnluyp6RD8RASAFG4+f4vf/4qbaayXYNdb/lMXS4E33Kt/xzxgtW4sfsI9ZjIK99Zz48ELADIzMxkbGwPg1uNurp1O2RsIgOhshNCXYaZXwGY7wsmzZ0hP+VmVPYPYTP/EN/AHU12XakHKLjAAAAAASUVORK5CYII=;" vertex="1" parent="1">
          <mxGeometry x="-190" y="420" width="33" height="34" as="geometry" />
        </mxCell>
        <mxCell id="UiGgM8e8upT6HwpkXlBG-4" value="" style="shape=image;verticalLabelPosition=bottom;labelBackgroundColor=default;verticalAlign=top;aspect=fixed;imageAspect=0;image=data:image/png,iVBORw0KGgoAAAANSUhEUgAAACcAAAAoCAYAAAB99ePgAAADNUlEQVRYhd2Yv0vrUBTHv32Lk0uGQDaHgP4BDgrJn+DuUHCygwh169QlLqagGYQsXTtYFx1CMhUCcSjYTQuSyWTpUhC8k9N5k3lNm94fte8p78Adcm/OPZ/ce37c3BpjjPBD5dd3A/Dk/4DzPA95nn/JWBRF8DxP+n1puN3dXdi2jSRJVgLrdrs4PT3F4eHh+uFs20av10O9XlcCJCK02234vo/BYADDMNYD53keJpPJyoAfHx84OjrCcDjEYDDA1tZWMTaZTIRbzIXb2dmBZVl4fX1VBnx7e8PBwQFqtRqCIICmacVYlmWwLAvb29v8r2OMEa9dXV2RaZqUZVmpPwxD0jSNwjBc0Hl+fibTNKnZbNL7+3tpLM9zMk2TLi8vuXYZYySEY4zR2dkZ7e3t0XQ6FQKmaUq6rlcan06ntL+/T81mU2iTMUalbV2WLhzHgWEYaDQaIPpTUD6jdzQaFX03Nze4vr5Go9EozUFEOD4+hmEYOD8/X7CR5/miD8pulepXy64+z+7CtvIAef7S6XQIAHU6HWm/Fdmr9DmRs+u6Tv1+v+hzXZcAFM113WLs9vaWdF2np6cnJTvcgOAppmlKjuNUgs0DOo5DaZoqgwmjVTTBMrCqFVQFE8LxJhKBLQOUBWNsLpVUSVW68H0frVZLpAoAaLVa8H2/eB6NRkiSBLZtC3VrjKmdhFXAZsV1XZycnCjpKMNtbm4qGZgVxpjS+1JHptnsHYYhNE1DHMcgImGL4xiapiEMQwCKh9ZVAuKzL45j4kkcx0t1ZQJi5VQiAqwCW1sqkZlgGSAP7MtJWKQ4Ho+LCjEPOA/mOA6Nx+OVAJUKv8gH7+/vlX1MuvB/ZaIoikjTNIqiSHmFlo2XUgkveydJgnq9jl6vVxr//FGxLAtZluHx8XEhVYj+O6qqkFQq4X1Z1fFJJsJl0gg3WkUT8g6e6wJcKc/JHNnXAcgtX1U+KPpRkfGzpT42J8qFv91uYzgcIggCbGxsCN9fFkgyonQF1u12EQQB+v2+FBiw+h2LElwURbi4uMDd3V3pauFvAkrDvby84OHhoXQZowoo42ezouxz/1L+j2vX75AfDfcbBOnFOkqHsmoAAAAASUVORK5CYII=;" vertex="1" parent="1">
          <mxGeometry x="-140" y="417" width="39" height="40" as="geometry" />
        </mxCell>
        <mxCell id="UiGgM8e8upT6HwpkXlBG-5" value="" style="shape=image;verticalLabelPosition=bottom;labelBackgroundColor=default;verticalAlign=top;aspect=fixed;imageAspect=0;image=data:image/png,iVBORw0KGgoAAAANSUhEUgAAACYAAAAiCAYAAAAzrKu4AAADlElEQVRYhe2YXUhbZxiAH0dKc3RK3CyEQKRDkGVCIEFpLGNTg4P0IgQCo2yMCVIGcYQONhm00OxGzMVQYRN2MTC7MFsQBr0wMNeZHwZhExmDzVilCgmurkNDziSxUb5dmGhm/MnRpC1jD3wcOO95z3nyve8Jb1Ijy7LgGeS5py1wHP+LKeXMYrFYDJ1ORywWq6TPPmcSi0aj2O12ZFnG4XCwuLhYaS/lYtFoFKfTSSaTAWBra4ve3l7W1taenthhqQLpdBqr1crm5uaTFztOCmB3d5f19XVsNtuR8aqJnSRVIJfLsby8jNPpZGdnp/pi5UgV2N7eZm5ujv7+/uqKKZEqkMlkCAaDDA4OVkfsLFLFchMTE4yMjFRW7DxSxXJDQ0P4/f7KiAUCgXNLFchms7jdbmZmZhTn1hweexoaGhCispNQTU0N6XRaUU7JjoXDYSRJwufzIYQ41wqFQkiSxPDwsPJPI8uyOLympqZEbW2t8Hq94qyEQiEhSZLwer0l9y9nHSkmy7KIRCKivr5euN3uJy4ly7Io6bFiVlZW6OrqoqenB7/fj0qlOrUC4XAYm82Gx+PB5XIpL2GeE8UANjY2sFgstLa2EgwGkSTpVKnBgXdpMb7OBXJwQYOu5SVeMVxGnb/ur4VZovGtfLyOSy1Grhi0ysRg77Xv7OxErVYTiURobGw8Vsrj8fDqxR9535dAbzbDg3kSKYCrjN4dxqyBX798uyRuvvEZo+8YD26opO7t7e2iublZJJPJE3vqp3G7MHWPi0f5vD+WwuJDk0mYur1i5Yj49167MJluiYWiZymax2ZnZ2lra8NoNBKPx0t26nBPZfPH57Vmbn31AaS+Jraa3Y8XZpAXXqwDLlLcwYon2EAggMPhoKOjg8nJyRMbvfhBKm0LemA9nQXqIPWA35aWmJ/9Bs/ncfTXr9J0TG7ZjI2NAdDX18f09DQWi6Xs3G0AaoF7fNR/b+/ky4P84Lpyvh0rliu8seWQ+v1nEoBBpwEegeYG30UifHJND3E/0eS/h8sq/q58vNdDO1mS898ycNMH1tt0FtVrB+j++FOu6xPcees2Cwftd7ZSnkbuMZDyYX/Nt39Obx0gcOcN1EBOTkBKzje/FtcXo/xy7SbvvTlO4K4LLWV+jynl74erJDb3xiaVSqLxkpYmjboovkQi24jh8sH2ZR+ucv/PDLpWA03qKolVgv/efxfV5pkV+wcGCSa7u5qZowAAAABJRU5ErkJggg==;" vertex="1" parent="1">
          <mxGeometry x="-80" y="423" width="38" height="34" as="geometry" />
        </mxCell>
        <mxCell id="UiGgM8e8upT6HwpkXlBG-6" value="" style="shape=image;verticalLabelPosition=bottom;labelBackgroundColor=default;verticalAlign=top;aspect=fixed;imageAspect=0;image=data:image/png,iVBORw0KGgoAAAANSUhEUgAAACkAAAAiCAYAAADCp/A1AAADu0lEQVRYhe3YXUhbZxzH8a8jmZ4tk0xWEangBlKdVJYoKBFf2o1pvBCcILUDh2RjmJv0xhdwMJlXkotFWL0TrWNkc8qgF3FIEZlYZ2cjU1jmy3DTmUiVnWKM5+gOnN10cRq1STy6UfaDc/Pk//zPJ+c8DzxJQjAYVPmP57l/GxBNnm1kb28v6enprK6uauk5NnEh3W43bW1tBINBCgoKmJiY0Np1KDEjXS4XDocDWZYBkCSJ2trac4UmxLK7W1pa6O/vR5KkiM8EQWB4eJiSkhJNgRAlUlEUGhsbGR0dZXd398S684I+FSlJEjU1NXi93mOf4NGcB/TUNSmKIuXl5czMzEQFhPNZoyci/X4/FouF5eVl9vb2YmqqNfRY5MLCAkVFRQQCAfb39+NqrCU0Yk36/X7MZjOhUOjMzUGbNRqBTE5ORlW1PXMkJCSwvb0d9/yI193Z2YkgCIyPj6Oq6pkun8+HwWCgvb39TF9Sd3TA4XCg1+uxWq2MjIxQVlYWV+P19XWKi4upq6ujtbVVWySA3W4HiBsqiiIWi4XCwkK6u7vPBDwRCfFDJUmitLSU1NRUBgcHzww8FQmxQxVFwWq1IssyU1NTmgCfioTYoPX19SwuLjI3N6cZEKJAQnRQh8PB2NgYs7OzJCUlXTwSToc6nU76+vqYnJwkJSUlPL6z4eP+1M+E9Eay3zCRc9nIhs/L3C+/IYYgNctEiTkTHTv4phd5Ofd1CPzEI/1r5GUaw31iOk8C9PT00NHREYYODAzQ1NSEx+MhPz8/XLc13cs7zXcgw4wZL941cHru8rCqmi8zsrFcCnHfu4axxsndD/S8W3WLtb8n33Dxnd18cNNgMKjGenV1damCIKhut1sVBEEdGho6UuNT200mtbrrXnhs6cEDdUUMqmK4ZlO911Wtmq651LXNSbXeZFLrP3GrS4FNVRQP3y/q1/3P2O12EhMTaWhowOl0UlFRcbhg5w/mgcprueGhtJwcQGb6KxfNtz0HtdnPowNCQGXlW6QZItdzXEgAm82GzWaLac6O7wuab3u48dFn3Lyeh26pl6oPD05Z+3/KQCTyfH53G1K4Cnz97Q8oACgsTU/zSAZ4k+q38zDqFBZn5uHJ/njxlHZxP8nTc5n3Xe/hufUx17/5FCOPeYwR1+ftZHCHm6UPn4wBXEVRFDaAbeX4bjHv7lgib/3Kj/Mr7Opf4NXsXDJfMSBvLTH1/QJcuoLpyksENiEry8jvvhWSMnJIM1wwUqs82/8FXWT+R2qVvwD9hjKr1NKizAAAAABJRU5ErkJggg==;" vertex="1" parent="1">
          <mxGeometry x="-198" y="470" width="41" height="34" as="geometry" />
        </mxCell>
        <mxCell id="UiGgM8e8upT6HwpkXlBG-7" value="" style="shape=image;verticalLabelPosition=bottom;labelBackgroundColor=default;verticalAlign=top;aspect=fixed;imageAspect=0;image=data:image/png,iVBORw0KGgoAAAANSUhEUgAAADgAAAAhCAYAAACMX2hNAAAFC0lEQVRYhe2Zf0iUdxzHX45T79aTPDWLU7yWDTddJEODC8vMxVYno3E0zBw44hhzV3D1x1QyyFGM5v2hjf0jof2QljhClqAhS4tq0jIb/mNptFAyYa47vEfvufMB98fd3N152t150jV6wwN3nx/fz+f1fL8fjue5OIfDMcv/WG+87AaWW68BX3VFBNjY2EhqaiojIyPR7ifqChvw0qVLVFVV4XA42Lx5Mzdv3lyOvqKmsADr6+uxWCzIsgyA0+lk7969MQ0ZF+rPREVFBefOncPpdM7zaTQaLl++TH5+ftQbXKpeCKgoCgcOHKCrq4vp6ekF42IVclFAp9OJ0Wikv78/6M4FKhYhF5xBm83Gjh076OvrCwkOYnMmgwKOjY2Rl5fHo0ePcLlcYS0Ya5DzAB8+fMiWLVt49uwZbrc7okVjCdJvBsfGxsjJyWFqaioqi8fCTPoBJiUlMTsb3YeLuLg4Jicno7pmOPI7oidOnECj0XD9+nVmZ2eXdA0ODiIIAtXV1S+LDQCV7xeLxUJ8fDwGg4HOzk4KCgoiWvTp06ds3bqV4uJiKisro9JopFIFGsxmM0DEkDabjby8PPR6PadPn45Ol0vQPECIHNLpdLJ9+3bWrl1La2tr9LpcgoICQviQiqJgMBiQZZne3t7odrkELQgI4UHu37+foaEhBgYGvBaFJ3eu0tFzj79ciWzI3YZh9zaSVQAyA12dKNkGcrTqufiBrnb+1uVTmCUw2PMrD+wzQDwrxDWkZ7xHRprojZU9/imI91pmpmZ4p8BA9tx6IQCGCmmxWOju7ub+/fuo1WpApudUMcc77GTuNKJf4+Ln2qOcqd1JQ8dxsgSFWyfrcNUX+gDK3D1Zx/mStynMepff6mo5TyY5G6C//wEAuqIKGqo+QUDx+nVkalcAMDU+xZ7sj8jW+vf2QsAXQVqtVs6ePcvt27dZvXo1ANLgzxzvsFNibcWs91Q0lRVxuOgQlWd2c+XIRhJFQOVfPkEHusT/bF98/wOmLDWg8OTWecqO1nIsfR31+zZ4/Y1e/8IK+YHXbDZTU1ODwWDgxo0bAFy4cIGamhra29tJT0+fix3tuwqUUKr3uZ1CNgcP5mBvu8cEkABMTk4gSXYmJuxI0gQOh39N14zs/aRi/TYTVqNI/8W72H3yFVlGkiQkSUIJ0ndIO+gLCZ6dbGpqory8nObmZnJzc/3ixh+PgjEXMSA/JWsT0M2IVEaCFjqOltEREJO5SP2NOz+Ftm4eS/tI0ELbN6W0+fhLfryCOdu/aliA4IFMTEykrKwMq9XKrl275sW8mSTC5DRKYIF4gBWoAPc4GL/7ia8/EJEVUKvsXCwtpXuR2oriAtagUXnyi75tpHzTSmTv1gnJgbc0wrdqJpOJ58+fYzKZgvqTkrVw7Q4TAfahnl9A1LNOADeQmCSiFgREUUAtiCSsXKyqwu/tLSDmolN78pPeSkFM1qLVei4hyHYty3vRjMLPgA5ONffPzYV9sI2aFjuZn+ch4pkhgk6NRwk+nxV5glvNxzh5DUqqDQgh5P+rsI9oKFKlfUzDkV6+qjvMh2d0ZOpGeTAK5HxJ074sQMJhh8mA/tyjMOryGN1Ay6E9tPj4jRUNmPXJC+YHU8hv1SKRND7MHwN/YgdSde+TnZXmvaMK48PDKCkZpM2dK49NXpXO+mQV48PD2LwAKs0qUtJ8j2Cw/OBaVsBY0Ov/Jl51/QM59UBOymw/mQAAAABJRU5ErkJggg==;" vertex="1" parent="1">
          <mxGeometry x="-134" y="471" width="56" height="33" as="geometry" />
        </mxCell>
        <mxCell id="UiGgM8e8upT6HwpkXlBG-8" value="" style="shape=image;verticalLabelPosition=bottom;labelBackgroundColor=default;verticalAlign=top;aspect=fixed;imageAspect=0;image=data:image/png,iVBORw0KGgoAAAANSUhEUgAAACwAAAAoCAYAAACFFRgXAAAD0ElEQVRYhe2ZT2gjVRzHP2t2W/90NYcGaltBwak5SCGpyUIsaBX2IGsh0mrFwx6KLaYR1oM96EEW9lBWZC9Z0bRZaRZkF1oH/9NQWdyDkinOoYtUm0MLlW5MgoQm0robeB7ChCR902TaxlTYDwwML7/fy5dP3stkJsdyuZzgf8R9zQ5glXuBG83xZgeALHpsgR/1Nf5pdfC0x0P/M73Y75dXN9fwzjpTg4Ocu3CZP1sfpnXrFhffCzJ4RTdtaaph/cr7fJd18uEXH3OqvRjl7YllvtYfMO1pYuA/iF3bwDnxaSkswPH2Xvynzbt2BXa73Q2JB6DrZR91/i9uAS/0PmZpDqnh1dXVPZs0TWN0dBRFUUgkEkQiEbxe7549PT09loKZYXnTaZpGIBDAZrMRCoWw2WwEAgE0TbM2UVsnz9rhyxu/WmqzFFjTNILBID6fj6GhITo7OxkeHsbn8xEMBi2GbmfgDTfZa+9yVU+WRjPLKpeuLpu35XI5UX4oiiJkxONx4fF4RCwWE263W6RSKSGEEKlUSvT19YmFhQXh8XhEPB6X9iuKIqrfK5dbEzMTLuFyuYTLNSAGXMXz12c0SW3xqOtbwjAbCoVYXFzE7/fjcDgAcDgc+P1+lpaWCIVCpbpaa9qw/NrUTZ5LLLOyloQHH6H7yadQOuz7N2yYjcfjIp1OV9g1MCynUqmK+tqGrR97ruFys16vl3A4XGHXwLAcDofxer0l05Y3Yj2YGa42ZWZXZlnW31DD1WYBU7syy0DjTMsMV6/BWnbNLJebbqhhVVUrdnktu2aWoWhaVdVD0mty4ejq6iqdZzIZ5ufnGR8fr2vCsbExVFUlnU5L5zsoNa909do1kFk+TPYMbNWugczyYbFnYKt2DRpp2TTwfu0aNMqyaeD92jVolGVp4IPaNahlObNyg+vXv2ElUygb3UGPqaixZXYkPdJfa9PT0weya1DL8uZPM1ye3cC+6eCrd04V465/z7kLl8B+loHTvVTf7UsNz83NHdiugWFZxomWhwDIqhH0PECBn2c/K754skVqUxr4MOwaGJZl3L3zN86z53nT+RsffbsOO7/wwQ8nmTw/Ark70h7pkohGo0Sj0UMJXItkSzcvB0eYDn5CZHMDXnyL/ifWuJitM3DFrfh/QW4be+8rvMSrzKow+Xk/bdu/m5YfkYeBHYxM+sA5wfPdUNg2rzwCDwOLPH5miptniuf5E+Z1zQ28tUGWwu7xu1tAq+wVjjXzL4N8MsHtwqMo3W0V44V8ksRtUJSOXUabGng/HJFNVz/3AjeafwGCmLZpzMsHmwAAAABJRU5ErkJggg==;" vertex="1" parent="1">
          <mxGeometry x="-201" y="520" width="44" height="40" as="geometry" />
        </mxCell>
        <mxCell id="UiGgM8e8upT6HwpkXlBG-9" value="" style="shape=image;verticalLabelPosition=bottom;labelBackgroundColor=default;verticalAlign=top;aspect=fixed;imageAspect=0;image=data:image/png,iVBORw0KGgoAAAANSUhEUgAAAB8AAAAjCAYAAABsFtHvAAAByklEQVRYhe2WP0hbQRzHP68YHoW8R3ULJQp2yJClJ3RWQodCl+DiUrJ16yDt0C1jqQiVIkQkji7JZBcphE6lSwV1ScFBIYPNEOiD3KNJyINfB0GTl399xBgh+cLB8f1x9+Hud7+7M7TWwpj0YFzgKXwy4TN+w7KskcG01v3hACK3X32GYXR4k5vzKfx+wivFAvv7BxQrXotb5+gwT/7wlDpQOS2QLxTxek3SS1praW2AtOokkxSllCQ+/rj2auc5UUqJSmTEEZGTTEKU2hJHegsQP2vgykNmGAAnt8ORC+DxfW/3KmibzAAh04ZZu/ul0UcD4c2GS/z1Bm/iRT4cXED9J++/2qQ3UlBtBMQFhAP8NudZfZei9Gmbnc+b8GKdlSc2OEOx/3OnqjUePV0jyUuyOUh/WSb899dwZAKVWoRX6WWIv+V5FLza0OxgZ2QxucVx8qrvhvzRRuBSGwyvlnBodvrNKmDiAc0G4GRJLGWvw7OpXb6tP+s7teH/vVqW1fakuuUzLr3HxKLhtoGeW+bsEmKxCPXyBaU/7Xl4OLfAYuRmjGEYHe/5QPhtqRv8ft/tU/go1LXUun327gTuP5Gj1OTmfAofi/4BtM3mWFujq3gAAAAASUVORK5CYII=;" vertex="1" parent="1">
          <mxGeometry x="-136" y="520" width="31" height="35" as="geometry" />
        </mxCell>
        <mxCell id="UiGgM8e8upT6HwpkXlBG-10" value="" style="shape=image;verticalLabelPosition=bottom;labelBackgroundColor=default;verticalAlign=top;aspect=fixed;imageAspect=0;image=data:image/png,iVBORw0KGgoAAAANSUhEUgAAADIAAAAhCAYAAACbffiEAAAC/0lEQVRYhe2YQUsyQRjH/4pGmLCHRYoWCkT2ItUhsIVyPYRUB8FPIX4AP4x46xN46eZsglhJEOLFQ0RBdRBBD0nCqjidesl3d3Zm16zeeH8wh9357+7z32dmnmF8g8GA4hfg/+4APov/Rn4aAVHheDzG2toaRqPRIuOZIRgMotvtIhDghymcEUII9vf3QSn9sra7u4vLy0uh+ISNVCoVHB8fi8o/BV3XUa/XhbTCRgzD+BYjV1dXQlohI/f39xgOh9je3p4rMLccHBzg+voak8mEqxUyQgixZMPv98Pn83lqfr/9Z0ulEsLh8J9rSZIQi8XQbDYXZ2TeifyRfr+PbDaLYrGI19fXmb5kMik04blGRqMR6vU60um0iGfXGIaBra0tqKqKRqNh6U+lUri4uOC/aDAYUKd2dnZG9/b26N8AsNwTBQA1TZMWCgWqKAolhDDf2+l0qCRJ9OXlxTFObqUhhODo6Mj9r+agaRo2NzfRarUgyzJTt7q6ikgkgna7jXg8ztRxhxYhBCcnJ96iZRAKhZDP51Eulx1NvJNMJrnDy9FIp9PB8/MzEomEu0g5PD4+IpfLCetF6omjEUII0uk0c7n0ikgWPqLr+nwZWcSw8kI0GgUAPDw8MDVMI9PpFOfn5wuZ6L1ez/UzvKwwjdzc3EBRFKyvr7v+KI+NjQ2USiVXz+i67lgYmUYWudsdDocoFovIZrPC2fGckUXvdhuNBlRVxc7ODgzD4Orj8Th6vR663a69wK5KPj090ZWVFWqapmN1nqeyv0MIoYqi0EKhQE3TdHxvJpOhp6entpXdNiPVahWpVApLS0vef7kgh4eHaLVauLu7g6ZpjlqnwmhrpFKpcJddr1v49/YRWZZRLpeRz+cRCoWY33QqjD67AzpVVVGr1RCLxRzNfDWTyQSSJOH29haSJM30WTLSbrexvLz840wAQCAQgKZptlmxGPmOQwY3sJZhi5Gfsi1hwSqMljkiy/KXHsJ5IRgMot/vz9yznez/Ir/m7PfXGHkDdQPUa7dJJqoAAAAASUVORK5CYII=;" vertex="1" parent="1">
          <mxGeometry x="-80" y="522" width="50" height="33" as="geometry" />
        </mxCell>
        <mxCell id="UiGgM8e8upT6HwpkXlBG-11" value="" style="shape=image;verticalLabelPosition=bottom;labelBackgroundColor=default;verticalAlign=top;aspect=fixed;imageAspect=0;image=data:image/png,iVBORw0KGgoAAAANSUhEUgAAAC0AAAAoCAYAAABq13MpAAAEG0lEQVRYhe2ZXUhbZxjHfxkyMrQQwQspBjUQF51kW2a6fuiGc3ZxZAlCoHE4pYwy2XYxwU2ZF94o0sIwFw0iMkIERWetZja5sFDtGrcLJaWjc5KMblVhYZOZYWRB1OzCjynGc45ZYjbwf3ce3ufN7/zPk8PzvEe2uroa5X+mZ1INEI9OoU9Kp9BStREKMDo0QTCyFyEwOcod7y//LIosMTE6QXDjcH5KoNP4gy57O7f9oZ3IMiNtXdz4fJTgTiTs/5r2Lie//VegUTzPNQVMzyxsXy//xLcATPJ0eTv0ZGYaNCYK5IfT0/Zf6HS6pHH6fL59VwpeNCvpvfeI8PtaIvNeQjor1b8PMjm/zKulch7dW0Rj0hGD+SA0gN/vTzhwQUHBoZhK/wY4H/Ar77Hq9aB7sw/DyjQfzCzQUnqGB4tQoVPG3C9lb48MlR4l8zz+McBDD1woziO/5BJM/sBS4DHz6NAqY/kcw+ldxXLnuBJ8ahkqDEq49dUIq+i4ngPyyHmUoS8YHkkHTRX5sZmPht7/owsLCzQ3NwPQ3d2NQqEQBRa/6QxKTDp67R7QNJKftnsji/R64GLjpzHrGUTKIxqN4nQ6sVgsGAwGBgYGJAFLVb72FQCUZZodQAUvXNqu45eLY9cziDhdU1ODTCZjeHiY3NxcyTD9/f2S1skLq/nyZglnVOq9WNG717lZ+hcq9VE+i0BXVVVRV1eHTCaTBBEMBmlpaSEcDktaDxmotYUHInJFDlqRhylYHvX19ZKBx8fHMZvN6PV6hoaGJOXEK0GnpWhlZYW2tjYCgQAOh4OioqJEcAnqX72np6amMBqNnD17FpfLdSLAEKfTa2trdHZ24vV6sdls6PX6RHMJ6thOz87OYjQa2drawu12nzgwHMPp9fV1bDYbY2NjdHR0UF5enkwuQUmCnpubo6mpCZVKhdvtJjMzM9lcghKE3tzcpKenB6fTSWtrKyaTSXTDaDRKX19fwgBjSRDaarWSnp6Oy+UiOztbdLP9PUoyJfhHNJvNOBwOUeBYPUoyJeh0bW2t6AahUIiGhoa4epR4JQh93J66srJS0rrIkg/XzJ9UvFNO1j6C4PcTfBfMpvqyVjD/SOhkjF172niKvasLii9wZa+bW+b2x+0MWm1UXxZOT8m4Jc8rwwr0353bi20EfQwCn70t3goccjoRY5a4sqj8SMOgfYKlD3XkAD/fvwVYOZ93dB+9qwPQB8f85Er9ugXs7UwHPuGKOsJd+zyaa41kSchN3Vle9jnqFdD/jR9CDxkELOVq0TRIQD8dvxRUXNXh7PJw59kgKOo5lyMNJ6WnpnllFpR4uNHr4+LV15A6Mqf2qDfrJQw7Q/dbZdJKA0CW6m8u4WCAJyvPUVSYI7lWUw4dj06/BJyU/gZIrk6w0LRMygAAAABJRU5ErkJggg==;" vertex="1" parent="1">
          <mxGeometry x="-179" y="570" width="45" height="40" as="geometry" />
        </mxCell>
      </root>
    </mxGraphModel>
  </diagram>
</mxfile>
